<?xml version="1.0" encoding="UTF-8"?><svg width="4000px" height="4000px" viewBox="0 0 4000 4000" version="1.1" xmlns="http://www.w3.org/2000/svg" xmlns:xlink="http://www.w3.org/1999/xlink"><defs><linearGradient x1="0.0643312102%" y1="50.0447452%" x2="100.023885%" y2="50.0447452%" id="linearGradient-1"><stop stop-color="#000000" offset="0%"></stop><stop stop-color="#361D1D" offset="11.08%"></stop><stop stop-color="#481A1A" offset="25.6%"></stop><stop stop-color="#252B61" offset="42.03%"></stop><stop stop-color="#186A91" offset="59.85%"></stop><stop stop-color="#0DACD2" offset="78.81%"></stop><stop stop-color="#00C8FF" offset="93.7938457%"></stop><stop stop-color="#31C1F1" offset="100%"></stop></linearGradient><linearGradient x1="0.0643312102%" y1="50.0447452%" x2="100.023885%" y2="50.0447452%" id="linearGradient-2"><stop stop-color="#000000" offset="0%"></stop><stop stop-color="#361D1D" offset="11.08%"></stop><stop stop-color="#481A1A" offset="25.6%"></stop><stop stop-color="#612525" offset="42.03%"></stop><stop stop-color="#911A18" offset="59.85%"></stop><stop stop-color="#D20D0D" offset="78.81%"></stop><stop stop-color="#FF0000" offset="98.44%"></stop><stop stop-color="#F15A31" offset="100%"></stop></linearGradient></defs><g id="Page-1" stroke="none" stroke-width="1" fill="none" fill-rule="evenodd"><g id="pattern" fill-rule="nonzero"><rect id="Rectangle-path" fill="#FFFFFF" x="0" y="0" width="4000" height="4000"></rect><path d="M1466.1,3293.8 C1293.4,3143.2 1182.5,2506 1414.3,2782.9 C1646.1,3059.8 2128.7,3871.4 1466.1,3293.8 Z" id="Shape" fill="#0082C3"></path><g id="Group" transform="translate(314.000000, 1300.000000)" fill="url(#linearGradient-1)"><circle id="Oval" cx="1045.9" cy="2412.2" r="34.3"></circle><circle id="Oval" cx="1045.9" cy="2069.3" r="34.3"></circle><circle id="Oval" cx="1045.9" cy="1726.4" r="17.1"></circle><circle id="Oval" cx="1045.9" cy="1383.5" r="17.1"></circle><circle id="Oval" cx="1045.9" cy="1040.6" r="11.4"></circle><circle id="Oval" cx="1045.9" cy="697.7" r="5.7"></circle><circle id="Oval" cx="703" cy="2412.2" r="34.3"></circle><circle id="Oval" cx="703" cy="2069.3" r="17.1"></circle><circle id="Oval" cx="703" cy="1726.4" r="17.1"></circle><circle id="Oval" cx="703" cy="1383.5" r="11.4"></circle><circle id="Oval" cx="703" cy="1040.6" r="5.7"></circle><circle id="Oval" cx="1731.7" cy="2412.2" r="34.3"></circle><circle id="Oval" cx="1731.7" cy="2069.3" r="34.3"></circle><circle id="Oval" cx="1731.7" cy="1726.4" r="34.3"></circle><circle id="Oval" cx="1731.7" cy="1383.5" r="34.3"></circle><circle id="Oval" cx="1731.7" cy="1040.6" r="17.1"></circle><circle id="Oval" cx="1731.7" cy="697.7" r="17.1"></circle><circle id="Oval" cx="1731.7" cy="354.8" r="11.4"></circle><circle id="Oval" cx="1731.7" cy="11.9" r="5.7"></circle><circle id="Oval" cx="1388.8" cy="2412.2" r="34.3"></circle><circle id="Oval" cx="1388.8" cy="2069.3" r="34.3"></circle><circle id="Oval" cx="1388.8" cy="1726.4" r="34.3"></circle><circle id="Oval" cx="1388.8" cy="1383.5" r="17.1"></circle><circle id="Oval" cx="1388.8" cy="1040.6" r="17.1"></circle><circle id="Oval" cx="1388.8" cy="697.7" r="11.4"></circle><circle id="Oval" cx="1388.8" cy="354.8" r="5.7"></circle><circle id="Oval" cx="2074.6" cy="2412.2" r="34.3"></circle><circle id="Oval" cx="2074.6" cy="2069.3" r="34.3"></circle><circle id="Oval" cx="2074.6" cy="1726.4" r="34.3"></circle><circle id="Oval" cx="2074.6" cy="1383.5" r="34.3"></circle><circle id="Oval" cx="2074.6" cy="1040.6" r="34.3"></circle><circle id="Oval" cx="2074.6" cy="697.7" r="17.1"></circle><circle id="Oval" cx="2074.6" cy="354.8" r="17.1"></circle><circle id="Oval" cx="2074.6" cy="11.9" r="11.4"></circle><circle id="Oval" cx="360.1" cy="2412.2" r="17.1"></circle><circle id="Oval" cx="360.1" cy="2069.3" r="17.1"></circle><circle id="Oval" cx="360.1" cy="1726.4" r="11.4"></circle><circle id="Oval" cx="360.1" cy="1383.5" r="5.7"></circle><circle id="Oval" cx="17.3" cy="2412.2" r="17.1"></circle><circle id="Oval" cx="17.3" cy="2069.3" r="11.4"></circle><circle id="Oval" cx="17.3" cy="1726.4" r="5.7"></circle></g><path d="M2554,4000 C2514.6,3793.2 2248.4,3120.6 2708.8,3272.3 C3169.2,3424 3149,4000 3149,4000 L2554,4000 Z" id="Shape" fill="#000000"></path><g id="Group" transform="translate(2224.000000, 2765.000000)" fill="url(#linearGradient-1)"><g id="Oval" transform="translate(159.000000, 84.000000)"><circle cx="487.9" cy="1121.5" r="16"></circle><circle cx="487.9" cy="961.7" r="16"></circle><circle cx="487.9" cy="801.9" r="8"></circle><circle cx="487.9" cy="642" r="8"></circle><circle cx="487.9" cy="482.2" r="5.3"></circle><circle cx="487.9" cy="322.4" r="2.7"></circle><circle cx="328.1" cy="1121.5" r="16"></circle><circle cx="328.1" cy="961.7" r="8"></circle><circle cx="328.1" cy="801.9" r="8"></circle><circle cx="328.1" cy="642" r="5.3"></circle><circle cx="328.1" cy="482.2" r="2.7"></circle><circle cx="807.6" cy="1121.5" r="16"></circle><circle cx="807.6" cy="961.7" r="16"></circle><circle cx="807.6" cy="801.9" r="16"></circle><circle cx="807.6" cy="642" r="16"></circle><circle cx="807.6" cy="482.2" r="8"></circle><circle cx="807.6" cy="322.4" r="8"></circle><circle cx="807.6" cy="162.6" r="5.3"></circle><circle cx="807.6" cy="2.8" r="2.7"></circle><circle cx="647.7" cy="1121.5" r="16"></circle><circle cx="647.7" cy="961.7" r="16"></circle><circle cx="647.7" cy="801.9" r="16"></circle><circle cx="647.7" cy="642" r="8"></circle><circle cx="647.7" cy="482.2" r="8"></circle><circle cx="647.7" cy="322.4" r="5.3"></circle><circle cx="647.7" cy="162.6" r="2.7"></circle><circle cx="168.3" cy="1121.5" r="8"></circle><circle cx="168.3" cy="961.7" r="8"></circle><circle cx="168.3" cy="801.9" r="5.3"></circle><circle cx="168.3" cy="642" r="2.7"></circle><circle cx="8.5" cy="1121.5" r="8"></circle><circle cx="8.5" cy="961.7" r="5.3"></circle><circle cx="8.5" cy="801.9" r="2.7"></circle></g><g id="Oval" transform="translate(78.000000, 0.000000)"><circle cx="488.2" cy="1124.7" r="16"></circle><circle cx="488.2" cy="964.9" r="16"></circle><circle cx="488.2" cy="805.1" r="8"></circle><circle cx="488.2" cy="645.3" r="8"></circle><circle cx="488.2" cy="485.5" r="5.3"></circle><circle cx="488.2" cy="325.7" r="2.7"></circle><circle cx="328.4" cy="1124.7" r="16"></circle><circle cx="328.4" cy="964.9" r="8"></circle><circle cx="328.4" cy="805.1" r="8"></circle><circle cx="328.4" cy="645.3" r="5.3"></circle><circle cx="328.4" cy="485.5" r="2.7"></circle><circle cx="807.8" cy="1124.7" r="16"></circle><circle cx="807.8" cy="964.9" r="16"></circle><circle cx="807.8" cy="805.1" r="16"></circle><circle cx="807.8" cy="645.3" r="16"></circle><circle cx="807.8" cy="485.5" r="8"></circle><circle cx="807.8" cy="325.7" r="8"></circle><circle cx="807.8" cy="165.8" r="5.3"></circle><circle cx="807.8" cy="6" r="2.7"></circle><circle cx="648" cy="1124.7" r="16"></circle><circle cx="648" cy="964.9" r="16"></circle><circle cx="648" cy="805.1" r="16"></circle><circle cx="648" cy="645.3" r="8"></circle><circle cx="648" cy="485.5" r="8"></circle><circle cx="648" cy="325.7" r="5.3"></circle><circle cx="648" cy="165.8" r="2.7"></circle><circle cx="967.6" cy="1124.7" r="16"></circle><circle cx="967.6" cy="964.9" r="16"></circle><circle cx="967.6" cy="805.1" r="16"></circle><circle cx="967.6" cy="645.3" r="16"></circle><circle cx="967.6" cy="485.5" r="16"></circle><circle cx="967.6" cy="325.7" r="8"></circle><circle cx="967.6" cy="165.8" r="8"></circle><circle cx="967.6" cy="6" r="5.3"></circle><circle cx="168.5" cy="1124.7" r="8"></circle><circle cx="168.5" cy="964.9" r="8"></circle><circle cx="168.5" cy="805.1" r="5.3"></circle><circle cx="168.5" cy="645.3" r="2.7"></circle><circle cx="8.7" cy="1124.7" r="8"></circle><circle cx="8.7" cy="964.9" r="5.3"></circle><circle cx="8.7" cy="805.1" r="2.7"></circle></g><g id="Oval" transform="translate(81.000000, 81.000000)"><circle cx="487.6" cy="1124.5" r="16"></circle><circle cx="487.6" cy="964.7" r="16"></circle><circle cx="487.6" cy="804.9" r="8"></circle><circle cx="487.6" cy="645" r="8"></circle><circle cx="487.6" cy="485.2" r="5.3"></circle><circle cx="487.6" cy="325.4" r="2.7"></circle><circle cx="327.7" cy="1124.5" r="16"></circle><circle cx="327.7" cy="964.7" r="8"></circle><circle cx="327.7" cy="804.9" r="8"></circle><circle cx="327.7" cy="645" r="5.3"></circle><circle cx="327.7" cy="485.2" r="2.7"></circle><circle cx="807.2" cy="1124.5" r="16"></circle><circle cx="807.2" cy="964.7" r="16"></circle><circle cx="807.2" cy="804.9" r="16"></circle><circle cx="807.2" cy="645" r="16"></circle><circle cx="807.2" cy="485.2" r="8"></circle><circle cx="807.2" cy="325.4" r="8"></circle><circle cx="807.2" cy="165.6" r="5.3"></circle><circle cx="807.2" cy="5.8" r="2.7"></circle><circle cx="647.4" cy="1124.5" r="16"></circle><circle cx="647.4" cy="964.7" r="16"></circle><circle cx="647.4" cy="804.9" r="16"></circle><circle cx="647.4" cy="645" r="8"></circle><circle cx="647.4" cy="485.2" r="8"></circle><circle cx="647.4" cy="325.4" r="5.3"></circle><circle cx="647.4" cy="165.6" r="2.7"></circle><circle cx="967" cy="1124.5" r="16"></circle><circle cx="967" cy="964.7" r="16"></circle><circle cx="967" cy="804.9" r="16"></circle><circle cx="967" cy="645" r="16"></circle><circle cx="967" cy="485.2" r="16"></circle><circle cx="967" cy="325.4" r="8"></circle><circle cx="967" cy="165.6" r="8"></circle><circle cx="967" cy="5.8" r="5.3"></circle><circle cx="167.9" cy="1124.5" r="8"></circle><circle cx="167.9" cy="964.7" r="8"></circle><circle cx="167.9" cy="804.9" r="5.3"></circle><circle cx="167.9" cy="645" r="2.7"></circle><circle cx="8.1" cy="1124.5" r="8"></circle><circle cx="8.1" cy="964.7" r="5.3"></circle><circle cx="8.1" cy="804.9" r="2.7"></circle></g><g id="Oval"><circle cx="487.8" cy="1124.7" r="16"></circle><circle cx="487.8" cy="964.9" r="16"></circle><circle cx="487.8" cy="805.1" r="8"></circle><circle cx="487.8" cy="645.3" r="8"></circle><circle cx="487.8" cy="485.5" r="5.3"></circle><circle cx="487.8" cy="325.7" r="2.7"></circle><circle cx="328" cy="1124.7" r="16"></circle><circle cx="328" cy="964.9" r="8"></circle><circle cx="328" cy="805.1" r="8"></circle><circle cx="328" cy="645.3" r="5.3"></circle><circle cx="328" cy="485.5" r="2.7"></circle><circle cx="807.4" cy="1124.7" r="16"></circle><circle cx="807.4" cy="964.9" r="16"></circle><circle cx="807.4" cy="805.1" r="16"></circle><circle cx="807.4" cy="645.3" r="16"></circle><circle cx="807.4" cy="485.5" r="8"></circle><circle cx="807.4" cy="325.7" r="8"></circle><circle cx="807.4" cy="165.8" r="5.3"></circle><circle cx="807.4" cy="6" r="2.7"></circle><circle cx="647.6" cy="1124.7" r="16"></circle><circle cx="647.6" cy="964.9" r="16"></circle><circle cx="647.6" cy="805.1" r="16"></circle><circle cx="647.6" cy="645.3" r="8"></circle><circle cx="647.6" cy="485.5" r="8"></circle><circle cx="647.6" cy="325.7" r="5.3"></circle><circle cx="647.6" cy="165.8" r="2.7"></circle><circle cx="967.2" cy="1124.7" r="16"></circle><circle cx="967.2" cy="964.9" r="16"></circle><circle cx="967.2" cy="805.1" r="16"></circle><circle cx="967.2" cy="645.3" r="16"></circle><circle cx="967.2" cy="485.5" r="16"></circle><circle cx="967.2" cy="325.7" r="8"></circle><circle cx="967.2" cy="165.8" r="8"></circle><circle cx="967.2" cy="6" r="5.3"></circle><circle cx="168.2" cy="1124.7" r="8"></circle><circle cx="168.2" cy="964.9" r="8"></circle><circle cx="168.2" cy="805.1" r="5.3"></circle><circle cx="168.2" cy="645.3" r="2.7"></circle><circle cx="8.4" cy="1124.7" r="8"></circle><circle cx="8.4" cy="964.9" r="5.3"></circle><circle cx="8.4" cy="805.1" r="2.7"></circle></g></g><path d="M1319.7,0 C1666.9,965.2 1666.9,1398.6 2165.9,2068.3 C2664.9,2738 3467.8,2977.2 3315.9,4000 L3999.9,4000 L3999.9,0 L1319.7,0 Z" id="Shape" fill="url(#linearGradient-1)"></path><g id="Group" transform="translate(314.000000, 457.000000)" fill="url(#linearGradient-1)"><circle id="Oval" transform="translate(2688.000000, 1259.200000) scale(-1, 1) translate(-2688.000000, -1259.200000) " cx="2688" cy="1259.2" r="24.2"></circle><circle id="Oval" transform="translate(2202.700000, 1259.200000) scale(-1, 1) translate(-2202.700000, -1259.200000) " cx="2202.7" cy="1259.2" r="24.2"></circle><circle id="Oval" transform="translate(1717.400000, 1259.200000) scale(-1, 1) translate(-1717.400000, -1259.200000) " cx="1717.4" cy="1259.2" r="16.2"></circle><circle id="Oval" transform="translate(1232.100000, 1259.200000) scale(-1, 1) translate(-1232.100000, -1259.200000) " cx="1232.1" cy="1259.2" r="8.1"></circle><circle id="Oval" transform="translate(3173.300000, 1744.500000) scale(-1, 1) translate(-3173.300000, -1744.500000) " cx="3173.3" cy="1744.5" r="24.2"></circle><circle id="Oval" transform="translate(2688.000000, 1744.500000) scale(-1, 1) translate(-2688.000000, -1744.500000) " cx="2688" cy="1744.5" r="24.2"></circle><circle id="Oval" transform="translate(2202.700000, 1744.500000) scale(-1, 1) translate(-2202.700000, -1744.500000) " cx="2202.7" cy="1744.5" r="16.2"></circle><circle id="Oval" transform="translate(1717.400000, 1744.500000) scale(-1, 1) translate(-1717.400000, -1744.500000) " cx="1717.4" cy="1744.5" r="8.1"></circle><circle id="Oval" transform="translate(1717.400000, 288.600000) scale(-1, 1) translate(-1717.400000, -288.600000) " cx="1717.4" cy="288.6" r="24.2"></circle><circle id="Oval" transform="translate(1232.100000, 288.600000) scale(-1, 1) translate(-1232.100000, -288.600000) " cx="1232.1" cy="288.6" r="24.2"></circle><circle id="Oval" transform="translate(746.800000, 288.600000) scale(-1, 1) translate(-746.800000, -288.600000) " cx="746.8" cy="288.6" r="16.2"></circle><circle id="Oval" transform="translate(261.500000, 288.600000) scale(-1, 1) translate(-261.500000, -288.600000) " cx="261.5" cy="288.6" r="8.1"></circle><circle id="Oval" transform="translate(2202.700000, 773.900000) scale(-1, 1) translate(-2202.700000, -773.900000) " cx="2202.7" cy="773.9" r="24.2"></circle><circle id="Oval" transform="translate(1717.400000, 773.900000) scale(-1, 1) translate(-1717.400000, -773.900000) " cx="1717.4" cy="773.9" r="24.2"></circle><circle id="Oval" transform="translate(1232.100000, 773.900000) scale(-1, 1) translate(-1232.100000, -773.900000) " cx="1232.1" cy="773.9" r="16.2"></circle><circle id="Oval" transform="translate(746.800000, 773.900000) scale(-1, 1) translate(-746.800000, -773.900000) " cx="746.8" cy="773.9" r="8.1"></circle><circle id="Oval" transform="translate(3173.300000, 2229.800000) scale(-1, 1) translate(-3173.300000, -2229.800000) " cx="3173.3" cy="2229.8" r="24.2"></circle><circle id="Oval" transform="translate(2688.000000, 2229.800000) scale(-1, 1) translate(-2688.000000, -2229.800000) " cx="2688" cy="2229.8" r="16.2"></circle><circle id="Oval" transform="translate(2202.700000, 2229.800000) scale(-1, 1) translate(-2202.700000, -2229.800000) " cx="2202.7" cy="2229.8" r="8.1"></circle><circle id="Oval" transform="translate(3173.300000, 2715.100000) scale(-1, 1) translate(-3173.300000, -2715.100000) " cx="3173.3" cy="2715.1" r="16.2"></circle><circle id="Oval" transform="translate(2688.000000, 2715.100000) scale(-1, 1) translate(-2688.000000, -2715.100000) " cx="2688" cy="2715.1" r="8.1"></circle><circle id="Oval" transform="translate(2928.000000, 1504.400000) scale(-1, 1) translate(-2928.000000, -1504.400000) " cx="2928" cy="1504.4" r="48.5"></circle><circle id="Oval" transform="translate(2442.700000, 1504.400000) scale(-1, 1) translate(-2442.700000, -1504.400000) " cx="2442.7" cy="1504.4" r="24.2"></circle><circle id="Oval" transform="translate(1957.500000, 1504.400000) scale(-1, 1) translate(-1957.500000, -1504.400000) " cx="1957.5" cy="1504.4" r="24.2"></circle><circle id="Oval" transform="translate(1472.200000, 1504.400000) scale(-1, 1) translate(-1472.200000, -1504.400000) " cx="1472.2" cy="1504.4" r="16.2"></circle><circle id="Oval" transform="translate(986.900000, 1504.400000) scale(-1, 1) translate(-986.900000, -1504.400000) " cx="986.9" cy="1504.4" r="8.1"></circle><circle id="Oval" transform="translate(3413.300000, 1989.700000) scale(-1, 1) translate(-3413.300000, -1989.700000) " cx="3413.3" cy="1989.7" r="48.5"></circle><circle id="Oval" transform="translate(2928.000000, 1989.700000) scale(-1, 1) translate(-2928.000000, -1989.700000) " cx="2928" cy="1989.7" r="24.2"></circle><circle id="Oval" transform="translate(2442.700000, 1989.700000) scale(-1, 1) translate(-2442.700000, -1989.700000) " cx="2442.7" cy="1989.7" r="24.2"></circle><circle id="Oval" transform="translate(1957.500000, 1989.700000) scale(-1, 1) translate(-1957.500000, -1989.700000) " cx="1957.5" cy="1989.7" r="16.2"></circle><circle id="Oval" transform="translate(1472.200000, 1989.700000) scale(-1, 1) translate(-1472.200000, -1989.700000) " cx="1472.2" cy="1989.7" r="8.1"></circle><circle id="Oval" transform="translate(1957.500000, 533.800000) scale(-1, 1) translate(-1957.500000, -533.800000) " cx="1957.5" cy="533.8" r="48.5"></circle><circle id="Oval" transform="translate(1472.200000, 533.800000) scale(-1, 1) translate(-1472.200000, -533.800000) " cx="1472.2" cy="533.8" r="24.2"></circle><circle id="Oval" transform="translate(986.900000, 533.800000) scale(-1, 1) translate(-986.900000, -533.800000) " cx="986.9" cy="533.8" r="24.2"></circle><circle id="Oval" transform="translate(501.600000, 533.800000) scale(-1, 1) translate(-501.600000, -533.800000) " cx="501.6" cy="533.8" r="16.2"></circle><circle id="Oval" transform="translate(16.300000, 533.800000) scale(-1, 1) translate(-16.300000, -533.800000) " cx="16.3" cy="533.8" r="8.1"></circle><circle id="Oval" transform="translate(2442.700000, 1019.100000) scale(-1, 1) translate(-2442.700000, -1019.100000) " cx="2442.7" cy="1019.1" r="48.5"></circle><circle id="Oval" transform="translate(1957.500000, 1019.100000) scale(-1, 1) translate(-1957.500000, -1019.100000) " cx="1957.5" cy="1019.1" r="24.2"></circle><circle id="Oval" transform="translate(1472.200000, 1019.100000) scale(-1, 1) translate(-1472.200000, -1019.100000) " cx="1472.2" cy="1019.1" r="24.2"></circle><circle id="Oval" transform="translate(986.900000, 1019.100000) scale(-1, 1) translate(-986.900000, -1019.100000) " cx="986.9" cy="1019.1" r="16.2"></circle><circle id="Oval" transform="translate(501.600000, 1019.100000) scale(-1, 1) translate(-501.600000, -1019.100000) " cx="501.6" cy="1019.1" r="8.1"></circle><circle id="Oval" transform="translate(1472.200000, 48.500000) scale(-1, 1) translate(-1472.200000, -48.500000) " cx="1472.2" cy="48.5" r="48.5"></circle><circle id="Oval" transform="translate(986.900000, 48.500000) scale(-1, 1) translate(-986.900000, -48.500000) " cx="986.9" cy="48.5" r="24.2"></circle><circle id="Oval" transform="translate(501.600000, 48.500000) scale(-1, 1) translate(-501.600000, -48.500000) " cx="501.6" cy="48.5" r="24.2"></circle><circle id="Oval" transform="translate(16.300000, 48.500000) scale(-1, 1) translate(-16.300000, -48.500000) " cx="16.3" cy="48.5" r="16.2"></circle><circle id="Oval" transform="translate(3413.300000, 2475.000000) scale(-1, 1) translate(-3413.300000, -2475.000000) " cx="3413.3" cy="2475" r="24.2"></circle><circle id="Oval" transform="translate(2928.000000, 2475.000000) scale(-1, 1) translate(-2928.000000, -2475.000000) " cx="2928" cy="2475" r="24.2"></circle><circle id="Oval" transform="translate(2442.700000, 2475.000000) scale(-1, 1) translate(-2442.700000, -2475.000000) " cx="2442.7" cy="2475" r="16.2"></circle><circle id="Oval" transform="translate(1957.500000, 2475.000000) scale(-1, 1) translate(-1957.500000, -2475.000000) " cx="1957.5" cy="2475" r="8.1"></circle><circle id="Oval" transform="translate(3413.300000, 2960.300000) scale(-1, 1) translate(-3413.300000, -2960.300000) " cx="3413.3" cy="2960.3" r="24.2"></circle><circle id="Oval" transform="translate(2928.000000, 2960.300000) scale(-1, 1) translate(-2928.000000, -2960.300000) " cx="2928" cy="2960.3" r="16.2"></circle><circle id="Oval" transform="translate(2442.700000, 2960.300000) scale(-1, 1) translate(-2442.700000, -2960.300000) " cx="2442.7" cy="2960.3" r="8.1"></circle><circle id="Oval" transform="translate(2688.000000, 1497.200000) scale(-1, 1) translate(-2688.000000, -1497.200000) " cx="2688" cy="1497.2" r="24.2"></circle><circle id="Oval" transform="translate(2202.700000, 1497.200000) scale(-1, 1) translate(-2202.700000, -1497.200000) " cx="2202.7" cy="1497.2" r="24.2"></circle><circle id="Oval" transform="translate(1717.400000, 1497.200000) scale(-1, 1) translate(-1717.400000, -1497.200000) " cx="1717.4" cy="1497.2" r="16.2"></circle><circle id="Oval" transform="translate(1232.100000, 1497.200000) scale(-1, 1) translate(-1232.100000, -1497.200000) " cx="1232.1" cy="1497.2" r="8.1"></circle><circle id="Oval" transform="translate(3173.300000, 1982.500000) scale(-1, 1) translate(-3173.300000, -1982.500000) " cx="3173.3" cy="1982.5" r="24.2"></circle><circle id="Oval" transform="translate(2688.000000, 1982.500000) scale(-1, 1) translate(-2688.000000, -1982.500000) " cx="2688" cy="1982.5" r="24.2"></circle><circle id="Oval" transform="translate(2202.700000, 1982.500000) scale(-1, 1) translate(-2202.700000, -1982.500000) " cx="2202.7" cy="1982.5" r="16.2"></circle><circle id="Oval" transform="translate(1717.400000, 1982.500000) scale(-1, 1) translate(-1717.400000, -1982.500000) " cx="1717.4" cy="1982.5" r="8.1"></circle><circle id="Oval" transform="translate(1717.400000, 526.600000) scale(-1, 1) translate(-1717.400000, -526.600000) " cx="1717.4" cy="526.6" r="24.2"></circle><circle id="Oval" transform="translate(1232.100000, 526.600000) scale(-1, 1) translate(-1232.100000, -526.600000) " cx="1232.1" cy="526.6" r="24.2"></circle><circle id="Oval" transform="translate(746.800000, 526.600000) scale(-1, 1) translate(-746.800000, -526.600000) " cx="746.8" cy="526.6" r="16.2"></circle><circle id="Oval" transform="translate(261.500000, 526.600000) scale(-1, 1) translate(-261.500000, -526.600000) " cx="261.5" cy="526.6" r="8.1"></circle><circle id="Oval" transform="translate(2202.700000, 1011.900000) scale(-1, 1) translate(-2202.700000, -1011.900000) " cx="2202.7" cy="1011.9" r="24.2"></circle><circle id="Oval" transform="translate(1717.400000, 1011.900000) scale(-1, 1) translate(-1717.400000, -1011.900000) " cx="1717.4" cy="1011.9" r="24.2"></circle><circle id="Oval" transform="translate(1232.100000, 1011.900000) scale(-1, 1) translate(-1232.100000, -1011.900000) " cx="1232.1" cy="1011.9" r="16.2"></circle><circle id="Oval" transform="translate(746.800000, 1011.900000) scale(-1, 1) translate(-746.800000, -1011.900000) " cx="746.8" cy="1011.9" r="8.1"></circle><circle id="Oval" transform="translate(1232.100000, 41.300000) scale(-1, 1) translate(-1232.100000, -41.300000) " cx="1232.1" cy="41.3" r="24.2"></circle><circle id="Oval" transform="translate(746.800000, 41.300000) scale(-1, 1) translate(-746.800000, -41.300000) " cx="746.8" cy="41.3" r="24.2"></circle><circle id="Oval" transform="translate(261.500000, 41.300000) scale(-1, 1) translate(-261.500000, -41.300000) " cx="261.5" cy="41.3" r="16.2"></circle><circle id="Oval" transform="translate(3173.300000, 2467.800000) scale(-1, 1) translate(-3173.300000, -2467.800000) " cx="3173.3" cy="2467.8" r="24.2"></circle><circle id="Oval" transform="translate(2688.000000, 2467.800000) scale(-1, 1) translate(-2688.000000, -2467.800000) " cx="2688" cy="2467.8" r="16.2"></circle><circle id="Oval" transform="translate(2202.700000, 2467.800000) scale(-1, 1) translate(-2202.700000, -2467.800000) " cx="2202.7" cy="2467.8" r="8.1"></circle><circle id="Oval" transform="translate(3173.300000, 2953.100000) scale(-1, 1) translate(-3173.300000, -2953.100000) " cx="3173.3" cy="2953.1" r="16.2"></circle><circle id="Oval" transform="translate(2688.000000, 2953.100000) scale(-1, 1) translate(-2688.000000, -2953.100000) " cx="2688" cy="2953.1" r="8.1"></circle><circle id="Oval" transform="translate(3413.300000, 1742.400000) scale(-1, 1) translate(-3413.300000, -1742.400000) " cx="3413.3" cy="1742.4" r="48.5"></circle><circle id="Oval" transform="translate(2928.000000, 1742.400000) scale(-1, 1) translate(-2928.000000, -1742.400000) " cx="2928" cy="1742.4" r="48.5"></circle><circle id="Oval" transform="translate(2442.700000, 1742.400000) scale(-1, 1) translate(-2442.700000, -1742.400000) " cx="2442.7" cy="1742.4" r="24.2"></circle><circle id="Oval" transform="translate(1957.500000, 1742.400000) scale(-1, 1) translate(-1957.500000, -1742.400000) " cx="1957.5" cy="1742.4" r="24.2"></circle><circle id="Oval" transform="translate(1472.200000, 1742.400000) scale(-1, 1) translate(-1472.200000, -1742.400000) " cx="1472.2" cy="1742.4" r="16.2"></circle><circle id="Oval" transform="translate(986.900000, 1742.400000) scale(-1, 1) translate(-986.900000, -1742.400000) " cx="986.9" cy="1742.4" r="8.1"></circle><circle id="Oval" transform="translate(3413.300000, 2227.700000) scale(-1, 1) translate(-3413.300000, -2227.700000) " cx="3413.3" cy="2227.7" r="48.5"></circle><circle id="Oval" transform="translate(2928.000000, 2227.700000) scale(-1, 1) translate(-2928.000000, -2227.700000) " cx="2928" cy="2227.7" r="24.2"></circle><circle id="Oval" transform="translate(2442.700000, 2227.700000) scale(-1, 1) translate(-2442.700000, -2227.700000) " cx="2442.7" cy="2227.7" r="24.2"></circle><circle id="Oval" transform="translate(1957.500000, 2227.700000) scale(-1, 1) translate(-1957.500000, -2227.700000) " cx="1957.5" cy="2227.7" r="16.2"></circle><circle id="Oval" transform="translate(1472.200000, 2227.700000) scale(-1, 1) translate(-1472.200000, -2227.700000) " cx="1472.2" cy="2227.7" r="8.1"></circle><circle id="Oval" transform="translate(1957.500000, 771.800000) scale(-1, 1) translate(-1957.500000, -771.800000) " cx="1957.5" cy="771.8" r="48.5"></circle><circle id="Oval" transform="translate(1472.200000, 771.800000) scale(-1, 1) translate(-1472.200000, -771.800000) " cx="1472.2" cy="771.8" r="24.2"></circle><circle id="Oval" transform="translate(986.900000, 771.800000) scale(-1, 1) translate(-986.900000, -771.800000) " cx="986.9" cy="771.8" r="24.2"></circle><circle id="Oval" transform="translate(501.600000, 771.800000) scale(-1, 1) translate(-501.600000, -771.800000) " cx="501.6" cy="771.8" r="16.2"></circle><circle id="Oval" transform="translate(16.300000, 771.800000) scale(-1, 1) translate(-16.300000, -771.800000) " cx="16.3" cy="771.8" r="8.1"></circle><circle id="Oval" transform="translate(2928.000000, 1257.100000) scale(-1, 1) translate(-2928.000000, -1257.100000) " cx="2928" cy="1257.1" r="48.5"></circle><circle id="Oval" transform="translate(2442.700000, 1257.100000) scale(-1, 1) translate(-2442.700000, -1257.100000) " cx="2442.7" cy="1257.1" r="48.5"></circle><circle id="Oval" transform="translate(1957.500000, 1257.100000) scale(-1, 1) translate(-1957.500000, -1257.100000) " cx="1957.5" cy="1257.1" r="24.2"></circle><circle id="Oval" transform="translate(1472.200000, 1257.100000) scale(-1, 1) translate(-1472.200000, -1257.100000) " cx="1472.2" cy="1257.1" r="24.2"></circle><circle id="Oval" transform="translate(986.900000, 1257.100000) scale(-1, 1) translate(-986.900000, -1257.100000) " cx="986.9" cy="1257.1" r="16.2"></circle><circle id="Oval" transform="translate(501.600000, 1257.100000) scale(-1, 1) translate(-501.600000, -1257.100000) " cx="501.6" cy="1257.1" r="8.1"></circle><circle id="Oval" transform="translate(1957.500000, 286.500000) scale(-1, 1) translate(-1957.500000, -286.500000) " cx="1957.5" cy="286.5" r="48.5"></circle><circle id="Oval" transform="translate(1472.200000, 286.500000) scale(-1, 1) translate(-1472.200000, -286.500000) " cx="1472.2" cy="286.5" r="48.5"></circle><circle id="Oval" transform="translate(986.900000, 286.500000) scale(-1, 1) translate(-986.900000, -286.500000) " cx="986.9" cy="286.5" r="24.2"></circle><circle id="Oval" transform="translate(501.600000, 286.500000) scale(-1, 1) translate(-501.600000, -286.500000) " cx="501.6" cy="286.5" r="24.2"></circle><circle id="Oval" transform="translate(16.300000, 286.500000) scale(-1, 1) translate(-16.300000, -286.500000) " cx="16.3" cy="286.5" r="16.2"></circle><circle id="Oval" transform="translate(3413.300000, 2713.000000) scale(-1, 1) translate(-3413.300000, -2713.000000) " cx="3413.3" cy="2713" r="24.2"></circle><circle id="Oval" transform="translate(2928.000000, 2713.000000) scale(-1, 1) translate(-2928.000000, -2713.000000) " cx="2928" cy="2713" r="24.2"></circle><circle id="Oval" transform="translate(2442.700000, 2713.000000) scale(-1, 1) translate(-2442.700000, -2713.000000) " cx="2442.7" cy="2713" r="16.2"></circle><circle id="Oval" transform="translate(1957.500000, 2713.000000) scale(-1, 1) translate(-1957.500000, -2713.000000) " cx="1957.5" cy="2713" r="8.1"></circle><circle id="Oval" transform="translate(3413.300000, 3198.300000) scale(-1, 1) translate(-3413.300000, -3198.300000) " cx="3413.3" cy="3198.3" r="24.2"></circle><circle id="Oval" transform="translate(2928.000000, 3198.300000) scale(-1, 1) translate(-2928.000000, -3198.300000) " cx="2928" cy="3198.3" r="16.2"></circle><circle id="Oval" transform="translate(2442.700000, 3198.300000) scale(-1, 1) translate(-2442.700000, -3198.300000) " cx="2442.7" cy="3198.3" r="8.1"></circle><circle id="Oval" transform="translate(2445.900000, 777.400000) scale(-1, 1) translate(-2445.900000, -777.400000) " cx="2445.9" cy="777.4" r="48.5"></circle></g><path d="M1330.1,1907.2 C1060.2,1637.3 1115.2,1079.6 1356.6,1359.5 C1598,1639.4 1860.1,2437.3 1330.1,1907.2 Z" id="Shape" fill="url(#linearGradient-1)"></path><path d="M1860.4,2215.6 C1761,2228 1791.1,2053 1868.5,2084.9 C1945.9,2116.8 2019.9,2195.6 1860.4,2215.6 Z" id="Shape" fill="url(#linearGradient-1)"></path><g id="Group" transform="translate(1777.000000, 168.000000)" fill="url(#linearGradient-1)"><circle id="Oval" cx="1895.5" cy="974.5" r="31.4"></circle><circle id="Oval" cx="1581.4" cy="974.5" r="15.7"></circle><circle id="Oval" cx="1267.3" cy="974.5" r="15.7"></circle><circle id="Oval" cx="953.2" cy="974.5" r="10.5"></circle><circle id="Oval" cx="639" cy="974.5" r="5.2"></circle><circle id="Oval" cx="1895.5" cy="1288.7" r="15.7"></circle><circle id="Oval" cx="1581.4" cy="1288.7" r="15.7"></circle><circle id="Oval" cx="1267.3" cy="1288.7" r="10.5"></circle><circle id="Oval" cx="953.2" cy="1288.7" r="5.2"></circle><circle id="Oval" cx="1895.5" cy="346.3" r="31.4"></circle><circle id="Oval" cx="1581.4" cy="346.3" r="31.4"></circle><circle id="Oval" cx="1267.3" cy="346.3" r="31.4"></circle><circle id="Oval" cx="953.2" cy="346.3" r="15.7"></circle><circle id="Oval" cx="639" cy="346.3" r="15.7"></circle><circle id="Oval" cx="324.9" cy="346.3" r="10.5"></circle><circle id="Oval" cx="10.8" cy="346.3" r="5.2"></circle><circle id="Oval" cx="1895.5" cy="660.4" r="31.4"></circle><circle id="Oval" cx="1581.4" cy="660.4" r="31.4"></circle><circle id="Oval" cx="1267.3" cy="660.4" r="15.7"></circle><circle id="Oval" cx="953.2" cy="660.4" r="15.7"></circle><circle id="Oval" cx="639" cy="660.4" r="10.5"></circle><circle id="Oval" cx="324.9" cy="660.4" r="5.2"></circle><circle id="Oval" cx="1895.5" cy="32.1" r="31.4"></circle><circle id="Oval" cx="1581.4" cy="32.1" r="31.4"></circle><circle id="Oval" cx="1267.3" cy="32.1" r="31.4"></circle><circle id="Oval" cx="953.2" cy="32.1" r="31.4"></circle><circle id="Oval" cx="639" cy="32.1" r="15.7"></circle><circle id="Oval" cx="324.9" cy="32.1" r="15.7"></circle><circle id="Oval" cx="10.8" cy="32.1" r="10.5"></circle><circle id="Oval" cx="1895.5" cy="1602.8" r="15.7"></circle><circle id="Oval" cx="1581.4" cy="1602.8" r="10.5"></circle><circle id="Oval" cx="1267.3" cy="1602.8" r="5.2"></circle><circle id="Oval" cx="1895.5" cy="1916.9" r="10.5"></circle><circle id="Oval" cx="1581.4" cy="1916.9" r="5.2"></circle></g></g></g></svg>