<?xml version="1.0" encoding="UTF-8" standalone="no"?><svg xmlns="http://www.w3.org/2000/svg" height="74px" width="274px" version="1.1" xmlns:xlink="http://www.w3.org/1999/xlink" viewBox="0 0 274 74"><!-- Generator: Sketch 48.2 (47327) - http://www.bohemiancoding.com/sketch --> <title>exp</title> <desc>Created with Sketch.</desc> <g id="Page-1" fill-rule="evenodd" fill="none"><g id="exp" fill-rule="nonzero"> <g id="main_text" fill="#00AFFF" transform="translate(.000002 .000011)"><path id="Shape" d="m31.245-1.6376e-14v9.5361h-21.709l0.0001 4.9359h21.316v9.537h-21.316l0.0001 5.721h21.709v9.536h-22.831l0.0002-1.682h-1.6828v-1.683h-1.6829v-1.683h-1.6828v-1.683h-1.6829v-1.683h-1.6828l-9.3417e-16 -22.438 1.6828 0.0002v-1.6828h1.6829v-1.6829h1.6828v-1.6828h1.6829v-1.6829h1.6828v-1.6828l22.831-1.6376e-14zm-23.392 34.218v0.561h0.5609v-0.561h-0.5609zm0-1.683v0.561h0.5609v-0.561h-0.5609zm-3.3657-10.209v0.561h0.5609v-0.561h-0.5609zm-1.6829-14.473v0.5609h0.561v-0.5609h-0.561zm1.6829-1.6829v0.561h0.5609v-0.561h-0.5609zm3.3657-3.3657v0.561h0.5609v-0.561h-0.5609zm-1.6829 16.155v0.561h0.561v-0.561h-0.561zm0 1.683v0.561h0.561v-0.561h-0.561zm-3.3657 1.683v0.561h0.561v-0.561h-0.561zm3.3657 0v0.561h0.561v-0.561h-0.561zm0-16.156v0.561h0.561v-0.561h-0.561zm0 28.048v0.561h0.561v-0.561h-0.561zm1.6829-16.941v0.561h0.5609v-0.561h-0.5609zm-3.3657 3.366v0.561h0.5609v-0.561h-0.5609zm3.3657 15.258v0.561h0.5609v-0.561h-0.5609zm0-15.258v0.561h0.5609v-0.561h-0.5609zm0 10.209v0.561h0.5609v-0.561h-0.5609zm-3.3657 1.683v0.561h0.5609v-0.561h-0.5609zm0-24.682v0.5609h0.5609v-0.5609h-0.5609zm1.6828-3.3657v0.5609h0.561v-0.5609h-0.561zm-3.3657 26.364v0.561h0.561v-0.561h-0.561zm3.3657-22.999v0.5609h0.561v-0.5609h-0.561zm1.6829 0v0.5609h0.5609v-0.5609h-0.5609zm-3.3657 22.999v0.561h0.5609v-0.561h-0.5609zm3.3657-11.892v0.561h0.5609v-0.561h-0.5609zm0 3.366v0.561h0.5609v-0.561h-0.5609zm-1.6829 10.209v0.561h0.561v-0.561h-0.561zm1.6829-28.047v0.5609h0.5609v-0.5609h-0.5609zm0 1.6828v0.561h0.5609v-0.561h-0.5609zm-1.6829 24.682v0.561h0.561v-0.561h-0.561zm69.951-24.064l-12.846 12.846 12.79 12.845-6.788 6.787-12.846-12.901-12.845 12.845-6.732-6.731 12.902-12.79-12.846-12.845 6.788-6.7318 12.733 12.846 12.958-12.958 6.732 6.7875zm-17.221 10.154l-0.393 0.392 0.393 0.393 0.448-0.393-0.448-0.392zm-4.712 2.356l-0.393 0.448 0.393 0.393 0.392-0.393-0.392-0.448zm1.121 4.375l0.393-0.449-0.393-0.392-0.392 0.392 0.392 0.449zm-3.533-3.59l0.392-0.393-0.392-0.392-0.449 0.392 0.449 0.393zm5.946 0.393l-0.449 0.392 0.449 0.393 0.392-0.393-0.392-0.392zm3.477-1.234l-0.392 0.392 0.392 0.393 0.449-0.393-0.449-0.392zm-4.655 0.897l0.392-0.393-0.392-0.448-0.393 0.448 0.393 0.393zm2.299 1.515l-0.392 0.392 0.392 0.393 0.393-0.393-0.393-0.392zm1.178-1.234l-0.392 0.392 0.392 0.393 0.393-0.393-0.393-0.392zm-5.89-3.534l-0.392 0.392 0.392 0.393 0.393-0.393-0.393-0.392zm-1.178 4.431l0.393-0.393-0.393-0.392-0.392 0.392 0.392 0.393zm4.769-3.197l-0.393 0.392 0.393 0.393 0.392-0.393-0.392-0.392zm-2.749 2.804l0.393 0.393 0.392-0.393-0.392-0.392-0.393 0.392zm3.927-1.626l-0.393 0.392 0.393 0.393 0.392-0.393-0.392-0.392zm-3.591-2.805l0.393-0.393-0.393-0.392-0.392 0.392 0.392 0.393zm0.449 2.019l-0.392-0.392-0.393 0.392 0.393 0.393 0.392-0.393zm1.964-2.748l-0.393 0.392 0.393 0.393 0.392-0.393-0.392-0.392zm-1.571 1.57l0.393 0.393 0.392-0.393-0.392-0.392-0.393 0.392zm0.336 6.676l-0.392 0.392 0.392 0.393 0.393-0.393-0.393-0.392zm-3.534-5.89l-0.392 0.392 0.392 0.393 0.393-0.393-0.393-0.392zm7.125 0l-0.393 0.392 0.393 0.393 0.392-0.393-0.392-0.392zm-3.983-3.198l0.392 0.393 0.393-0.393-0.393-0.392-0.392 0.392zm0.785 7.124l-0.393-0.392-0.392 0.392 0.392 0.393 0.393-0.393zm-2.692 0.449l0.392-0.393-0.392-0.392-0.393 0.392 0.393 0.393zm3.085 0.729l0.392 0.393 0.393-0.393-0.393-0.392-0.392 0.392zm35.676-23.223h11.891l11.22 11.219v28.047h-9.54v-9.985h-15.254v9.985h-9.536v-28.047l11.219-11.219zm-1.683 15.202v4.543h15.254v-4.543l-7.625-7.6292-7.629 7.6292zm18.064 12.397v0.561h0.56v-0.561h-0.56zm-1.68 0v0.561h0.56v-0.561h-0.56zm-18.067 0v0.561h0.561v-0.561h-0.561zm21.427 0v0.561h0.56v-0.561h-0.56zm-3.36-5.049v0.561h0.56v-0.561h-0.56zm0 1.683v0.561h0.56v-0.561h-0.56zm5.04 3.366v0.561h0.57v-0.561h-0.57zm-3.36-1.683v0.561h0.56v-0.561h-0.56zm-23.112 0v0.561h0.561v-0.561h-0.561zm3.365-3.366v0.561h0.561v-0.561h-0.561zm19.747 1.683v0.561h0.56v-0.561h-0.56zm-1.68 1.683v0.561h0.56v-0.561h-0.56zm-23.115 1.683v0.561h0.561v-0.561h-0.561zm3.366 0v0.561h0.561v-0.561h-0.561zm0-1.683v0.561h0.561v-0.561h-0.561zm1.682-1.683v0.561h0.561v-0.561h-0.561zm21.427 1.683v0.561h0.56v-0.561h-0.56zm-24.792 1.683v0.561h0.561v-0.561h-0.561zm1.683-3.366v0.561h0.561v-0.561h-0.561zm1.682 1.683v0.561h0.561v-0.561h-0.561zm10.097-21.541l0.39 0.3927 0.4-0.3927-0.4-0.3927-0.39 0.3927zm-1.178 1.2341l0.393 0.3926 0.393-0.3926-0.393-0.3927-0.393 0.3927zm2.358-2.4121l0.39 0.3927 0.39-0.3927-0.39-0.3927-0.39 0.3927zm-5.948-1.178l0.393 0.3927 0.393-0.3927-0.393-0.3927-0.393 0.3927zm1.235 1.178l0.392 0.3927 0.393-0.3927-0.393-0.3927-0.392 0.3927zm5.943-1.178l0.4 0.3927 0.39-0.3927-0.39-0.3927-0.4 0.3927zm-3.588 1.178l0.393 0.3927 0.393-0.3927-0.393-0.3927-0.393 0.3927zm-1.178-1.178l0.393 0.3927 0.393-0.3927-0.393-0.3927-0.393 0.3927zm0 2.356l0.393 0.3927 0.393-0.3927-0.393-0.3927-0.393 0.3927zm2.356-2.356l0.39 0.3927 0.4-0.3927-0.4-0.3927-0.39 0.3927zm43.64 11.724l-0.39-0.449-0.45 0.449 0.45 0.393 0.39-0.393zm-1.18 1.178l-0.44-0.392-0.4 0.392 0.45 0.393 0.39-0.393zm-2.02-3.534l0.4 0.393 0.45-0.449-0.4-0.393-0.45 0.449zm2.02 1.122l-0.39-0.393-0.45 0.449 0.4 0.393 0.44-0.449zm2.36 2.412l-0.39-0.392-0.4 0.392 0.4 0.393 0.39-0.393zm-6.34-1.57l-0.39 0.392 0.39 0.393 0.39-0.393-0.39-0.392zm2.75 0.392l-0.39-0.392-0.4 0.392 0.4 0.393 0.39-0.393zm-3.53 1.178l-0.4-0.392-0.39 0.392 0.39 0.393 0.4-0.393zm1.57-2.356l0.39 0.393 0.39-0.393-0.39-0.392-0.39 0.392zm0.78 2.356l-0.39-0.392-0.39 0.392 0.39 0.393 0.39-0.393zm-18.06 24.345v-39.266l9.54 1.3874e-15 9.31 9.3678 9.37-9.3678 9.53 1.3874e-15v39.266h-9.53v-25.747l-3.37 3.366-1.23-1.178-1.18 1.178-1.18-1.178-1.18 1.178-1.23-1.178-1.18 1.178-1.18-1.178-1.18 1.178-1.17-1.178-1.18 1.178-3.42-3.366v25.747h-9.54zm74.04-32.535v1.6828h1.69v9.4238h-1.69v1.683h-1.68v1.683h-1.68v1.683h-1.68v1.683h-1.69v1.682h-14.41v13.014h-9.54v-39.266l23.95-9.2707e-15v1.6828h1.69v1.6829h1.68v1.6828h1.68v1.6829h1.68zm-21.14 2.8047v7.1799h13.29v-7.1799h-13.29zm14.41-6.7314v0.561h0.56v-0.561h-0.56zm0 15.033v0.561h0.56v-0.561h-0.56zm5.05-9.9847v0.5609h0.56v-0.5609h-0.56zm-5.05-1.6829v0.561h0.56v-0.561h-0.56zm5.05 11.668v0.561h0.56v-0.561h-0.56zm-5.05-9.9847v0.5609h0.56v-0.5609h-0.56zm1.69-3.3657v0.5609h0.56v-0.5609h-0.56zm1.68 15.033v0.561h0.56v-0.561h-0.56zm-3.37 1.683v0.561h0.56v-0.561h-0.56zm3.37-3.366v0.561h0.56v-0.561h-0.56zm-3.37 1.683v0.561h0.56v-0.561h-0.56zm1.69-13.351v0.561h0.56v-0.561h-0.56zm0 11.668v0.561h0.56v-0.561h-0.56zm-1.69-13.35v0.5609h0.56v-0.5609h-0.56zm1.69 15.033v0.561h0.56v-0.561h-0.56zm1.68-13.351v0.561h0.56v-0.561h-0.56zm-1.68 15.034v0.561h0.56v-0.561h-0.56zm-1.69 1.683v0.561h0.56v-0.561h-0.56zm3.37-15.034v0.5609h0.56v-0.5609h-0.56zm-1.68 0v0.5609h0.56v-0.5609h-0.56zm12.34-7.8533l9.53 1.9929e-14v29.73h23.96v9.536h-25.08v-1.682h-1.68v-1.683h-1.68v-1.683h-1.69v-1.683h-1.68v-1.683h-1.68v-30.852zm7.85 35.901v0.561h0.56v-0.561h-0.56zm-3.37-5.049v0.561h0.57v-0.561h-0.57zm3.37 1.683v0.561h0.56v-0.561h-0.56zm-1.68 1.683v0.561h0.56v-0.561h-0.56zm0-3.366v0.561h0.56v-0.561h-0.56zm0 1.683v0.561h0.56v-0.561h-0.56zm-1.69 0v0.561h0.57v-0.561h-0.57zm3.37 1.683v0.561h0.56v-0.561h-0.56zm-5.05-3.366v0.561h0.56v-0.561h-0.56zm5.05 0v0.561h0.56v-0.561h-0.56zm62.49-30.852v9.5361h-21.71v4.9359h21.32v9.537h-21.32v5.721h21.71v9.536h-22.83v-1.682h-1.68v-1.683h-1.69v-1.683h-1.68v-1.683h-1.68v-1.683h-1.68v-22.438l1.68 0.0002v-1.6828h1.68v-1.6829h1.68v-1.6828h1.69v-1.6829h1.68v-1.6828l22.83-1.6376e-14zm-23.39 34.218v0.561h0.56v-0.561h-0.56zm0-1.683v0.561h0.56v-0.561h-0.56zm-3.37-10.209v0.561h0.56v-0.561h-0.56zm-1.68-14.473v0.5609h0.56v-0.5609h-0.56zm1.68-1.6829v0.561h0.56v-0.561h-0.56zm3.37-3.3657v0.561h0.56v-0.561h-0.56zm-1.68 16.155v0.561h0.56v-0.561h-0.56zm0 1.683v0.561h0.56v-0.561h-0.56zm-3.37 1.683v0.561h0.56v-0.561h-0.56zm3.37 0v0.561h0.56v-0.561h-0.56zm0-16.156v0.561h0.56v-0.561h-0.56zm0 28.048v0.561h0.56v-0.561h-0.56zm1.68-16.941v0.561h0.56v-0.561h-0.56zm-3.37 3.366v0.561h0.56v-0.561h-0.56zm3.37 15.258v0.561h0.56v-0.561h-0.56zm0-15.258v0.561h0.56v-0.561h-0.56zm0 10.209v0.561h0.56v-0.561h-0.56zm-3.37 1.683v0.561h0.56v-0.561h-0.56zm0-24.682v0.5609h0.56v-0.5609h-0.56zm1.69-3.3657v0.5609h0.56v-0.5609h-0.56zm-3.37 26.364v0.561h0.56v-0.561h-0.56zm3.37-22.999v0.5609h0.56v-0.5609h-0.56zm1.68 0v0.5609h0.56v-0.5609h-0.56zm-3.37 22.999v0.561h0.56v-0.561h-0.56zm3.37-11.892v0.561h0.56v-0.561h-0.56zm0 3.366v0.561h0.56v-0.561h-0.56zm-1.68 10.209v0.561h0.56v-0.561h-0.56zm1.68-28.047v0.5609h0.56v-0.5609h-0.56zm0 1.6828v0.561h0.56v-0.561h-0.56zm-1.68 24.682v0.561h0.56v-0.561h-0.56z"/> </g> <g id="slogan_text" fill="#939393" transform="translate(35.718 58.664)"><path id="Shape" d="m9.2387 2.8974l-6.4302-0.0004v3.5507h3.4622c0.1944 0 0.3533 0.159 0.3533 0.3534v1.7487c0 0.212-0.1413 0.3358-0.3533 0.3358h-3.4622v3.2684h6.43c0.1943 0 0.3531 0.158 0.3531 0.353v1.731c0 0.194-0.1588 0.353-0.3531 0.353h-8.6027c-0.19436 0-0.35334-0.159-0.35334-0.353v-13.442c0-0.17709 0.14132-0.33607 0.33581-0.33607h8.6204c0.1943 0 0.3531 0.15898 0.3531 0.33563v1.7664c0 0.1943-0.1588 0.3356-0.3531 0.3356v-0.0002zm15.951 11.341c0.106 0.159 0 0.353-0.177 0.353h-2.473c-0.194 0-0.265-0.176-0.388-0.353l-3.074-4.5045-3.074 4.5045c-0.123 0.177-0.194 0.353-0.388 0.353h-2.474c-0.176 0-0.282-0.194-0.176-0.353l4.593-6.7305-4.576-6.7126c-0.123-0.17665-0.035-0.33563 0.159-0.33563h2.491c0.177 0 0.247 0.14131 0.371 0.33562l3.074 4.5045 3.073-4.5045c0.124-0.19432 0.195-0.33563 0.372-0.33563h2.49c0.195 0 0.283 0.15898 0.159 0.33562l-4.575 6.7126 4.593 6.7305zm17.046-0.036c0.106 0.212 0.036 0.389-0.212 0.389h-2.066c-0.177 0-0.283-0.088-0.354-0.23l-0.954-2.013h-6.801l-0.954 2.013c-0.07 0.142-0.194 0.23-0.353 0.23h-2.084c-0.212 0-0.336-0.177-0.23-0.389l6.66-13.655c0.07-0.12353 0.158-0.17653 0.247-0.17653h0.212c0.106 0 0.176 0.05299 0.247 0.17682l6.642 13.655zm-9.309-4.151h4.646l-2.314-4.9282-2.332 4.9282zm28.9-9.5914c0.194 0 0.354 0.15881 0.354 0.33545v13.443c0 0.176-0.142 0.353-0.336 0.353h-1.819c-0.212 0-0.354-0.159-0.354-0.353v-8.5677l-5.158 8.1607c-0.106 0.177-0.212 0.248-0.371 0.248h-0.106c-0.159 0-0.265-0.071-0.371-0.248l-5.14-8.1784v8.5854c0 0.177-0.159 0.353-0.354 0.353h-1.819c-0.195 0-0.354-0.159-0.354-0.353v-13.443c0-0.17637 0.142-0.33535 0.354-0.33535h1.519c0.177 0 0.3 0.07066 0.406 0.22964l5.812 9.1855 5.829-9.1855c0.089-0.15899 0.212-0.22965 0.407-0.22965h1.501v-0.00003zm10.245 0c2.933 0 4.858 2.6498 4.858 4.8225 0 2.3318-1.926 4.8579-4.858 4.8579h-3.126v4.098c0 0.212-0.142 0.353-0.336 0.353h-1.873c-0.176 0-0.318-0.141-0.318-0.353v-13.442c0-0.17712 0.142-0.3361 0.336-0.3361h5.317v-0.00028zm-0.265 7.2424c1.661 0 2.597-1.2191 2.597-2.4202 0-1.1834-0.936-2.3846-2.597-2.3846h-2.861v4.8048h2.861zm17.1 4.452c0.194 0 0.336 0.141 0.336 0.353v1.749c0 0.177-0.142 0.335-0.336 0.335h-8.355c-0.177 0-0.265-0.141-0.265-0.318v-13.478c0-0.17629 0.141-0.33528 0.335-0.33528h1.837c0.195 0 0.354 0.15899 0.354 0.33563v11.358h6.094v0.001zm13.263-9.2566l-6.427-0.0004v3.5507h3.462c0.195 0 0.354 0.159 0.354 0.3534v1.7487c0 0.212-0.142 0.3358-0.354 0.3358h-3.462v3.2684h6.427c0.2 0 0.36 0.158 0.36 0.353v1.731c0 0.194-0.16 0.353-0.36 0.353h-8.6c-0.194 0-0.353-0.159-0.353-0.353v-13.442c0-0.17709 0.141-0.33607 0.336-0.33607h8.617c0.2 0 0.36 0.15898 0.36 0.33563v1.7664c0 0.1943-0.16 0.3356-0.36 0.3356v-0.0002zm10.74 9.2386l1.01-1.166c0.21-0.248 0.48-0.248 0.67-0.106 0.58 0.494 1.63 1.431 2.93 1.431 1.28 0 2.37-0.478 2.37-1.573 0-1.148-1.18-1.4836-2.4-1.9782-2.53-1.0423-4.36-2.1198-4.36-4.4162 0-1.8018 1.32-3.9747 4.52-3.9747 2.17 0.00004 3.74 1.2367 4.2 1.696 0.2 0.1944 0.3 0.4417 0.13 0.6536l-0.89 1.1659c-0.17 0.2296-0.42 0.3356-0.7 0.1413-0.57-0.4416-1.49-1.2542-2.72-1.2542-1.26 0-2.04 0.7242-2.04 1.5722 0 0.9362 0.82 1.3955 2.14 1.9255 2.32 0.9719 4.63 2.0141 4.63 4.5048 0 2.067-2.05 3.957-4.84 3.957-2.53 0-4.1-1.608-4.54-2.032-0.16-0.141-0.32-0.335-0.11-0.547zm21.73 0.018c0.2 0 0.34 0.141 0.34 0.353v1.749c0 0.177-0.14 0.335-0.34 0.335h-8.35c-0.18 0-0.27-0.141-0.27-0.318v-13.478c0-0.17629 0.14-0.33528 0.34-0.33528h1.83c0.2 0 0.36 0.15899 0.36 0.33563v11.358h6.09v0.001zm11.27 2.561c3.96 0 7.19-3.18 7.19-7.2073 0-3.9922-3.23-7.172-7.19-7.172-3.99 0.00004-7.22 3.1797-7.22 7.172 0 4.0273 3.23 7.2073 7.22 7.2073zm0-2.438c-2.54 0-4.7-2.19-4.7-4.7693 0-2.5614 2.16-4.734 4.7-4.734s4.68 2.1726 4.68 4.734c0 2.5793-2.14 4.7693-4.68 4.7693zm23.27-4.1335v4.0095c0 0.089-0.04 0.195-0.13 0.265-1.3 1.431-3.16 2.296-5.28 2.296-3.89 0-7.14-3.126-7.14-7.1535 0-4.01 3.25-7.2249 7.14-7.2249 2.14-0.00004 4.01 0.8832 5.34 2.3317 0.15 0.159 0.14 0.3357-0.02 0.477l-1.47 1.1835c-0.18 0.1413-0.33 0.1237-0.48-0.0353-0.75-0.7949-1.94-1.519-3.35-1.519-2.6 0-4.63 2.2432-4.63 4.787 0 2.5795 2.03 4.7165 4.63 4.7165 1.15 0 2.14-0.477 2.88-1.078v-1.006h-2.79c-0.23 0-0.36-0.106-0.36-0.3359v-1.6958c0-0.2297 0.09-0.371 0.32-0.371h4.98c0.23 0 0.36 0.1238 0.36 0.3533v-0.0001zm17.29 6.0585c0.11 0.212 0.03 0.389-0.21 0.389h-2.07c-0.18 0-0.28-0.088-0.35-0.23l-0.96-2.013h-6.8l-0.95 2.013c-0.07 0.142-0.2 0.23-0.35 0.23h-2.09c-0.21 0-0.34-0.177-0.23-0.389l6.66-13.655c0.07-0.12353 0.16-0.17653 0.25-0.17653h0.21c0.11 0 0.18 0.05299 0.25 0.17682l6.64 13.655zm-9.31-4.151h4.65l-2.32-4.9282-2.33 4.9282zm25-9.5914c0.17 0 0.35 0.15898 0.35 0.33563v13.461c0 0.176-0.14 0.335-0.34 0.335h-0.58c-0.48 0-0.99-0.336-1.62-1.042l-7.23-8.0729v8.7619c0 0.177-0.16 0.336-0.35 0.336l-1.8 0.017c-0.2 0-0.36-0.159-0.36-0.353v-13.443c0-0.17633 0.16-0.33531 0.34-0.33531h1.04c0.19 0 0.32 0.07066 0.48 0.26497l7.89 9.0444v-8.9738c0-0.17662 0.14-0.3356 0.34-0.3356h1.84v-0.00008z"/> </g></g> </g></svg>