<?xml version="1.0" encoding="UTF-8"?><svg width="4000px" height="4000px" viewBox="0 0 4000 4000" version="1.1" xmlns="http://www.w3.org/2000/svg" xmlns:xlink="http://www.w3.org/1999/xlink"><defs><rect id="path-1" x="0" y="0" width="4000" height="4000"></rect></defs><g id="Page-1" stroke="none" stroke-width="1" fill="none" fill-rule="evenodd"><g id="pattern"><mask id="mask-2" fill="white"><use xlink:href="#path-1"></use></mask><g id="path-1"></g><g id="Group" mask="url(#mask-2)"><g transform="translate(-4453.000000, -1616.000000)" id="Shape"><g><polygon fill="#00AFFF" fill-rule="nonzero" points="464.3 7842.1 12302.8 7842.1 12302.8 4877.7"></polygon><polygon fill="#C0E4E2" fill-rule="nonzero" points="0.8 3147.3 10806.8 72.9 0.8 72.9"></polygon><path d="M1027.2,6911.7 L870.7,6168.9 C1310,6076.3 1553.1,6075.2 1767.5,6074.1 C1971.6,6073.1 2147.8,6072.2 2511.5,5995.6 C2875.2,5919 3036.8,5848.7 3223.9,5767.2 C3420.5,5681.6 3643.4,5584.7 4082.7,5492.1 C4522,5399.5 4765.1,5398.3 4979.5,5397.3 C5183.6,5396.3 5359.8,5395.4 5723.5,5318.8 C6087.2,5242.2 6248.8,5171.9 6436,5090.4 C6632.6,5004.8 6855.5,4907.9 7294.8,4815.3 C7734.1,4722.7 7977.1,4721.6 8191.6,4720.5 C8395.7,4719.5 8571.9,4718.6 8935.6,4642 C9299.4,4565.4 9461,4495.1 9648.1,4413.6 C9844.8,4328 10067.6,4231.1 10506.9,4138.5 C10946.2,4045.9 11189.3,4044.7 11403.7,4043.7 C11607.8,4042.7 11784,4041.8 12147.8,3965.2 L12304.3,4708 C11865,4800.6 11621.9,4801.7 11407.5,4802.8 C11203.4,4803.8 11027.2,4804.7 10663.4,4881.3 C10299.7,4957.9 10138,5028.2 9950.9,5109.7 C9754.2,5195.3 9531.4,5292.2 9092,5384.8 C8652.7,5477.4 8409.7,5478.5 8195.2,5479.6 C7991.1,5480.6 7814.9,5481.5 7451.2,5558.1 C7087.5,5634.7 6925.9,5705 6738.7,5786.5 C6542.1,5872.1 6319.2,5969 5879.9,6061.6 C5440.6,6154.2 5197.6,6155.3 4983.1,6156.4 C4779,6157.4 4602.8,6158.3 4239.1,6234.9 C3875.4,6311.5 3713.8,6381.8 3526.7,6463.3 C3330.1,6548.9 3107.2,6645.8 2667.9,6738.4 C2228.6,6831 1985.6,6832.1 1771.1,6833.2 C1567.2,6834.2 1391,6835.1 1027.2,6911.7 Z" fill="#00AFFF" fill-rule="nonzero"></path><path d="M1236.1,7903 L1079.6,7160.2 C1518.9,7067.6 1762,7066.5 1976.4,7065.4 C2180.5,7064.4 2356.7,7063.5 2720.4,6986.9 C3084.1,6910.3 3245.7,6840 3432.9,6758.5 C3629.5,6672.9 3852.4,6576 4291.7,6483.4 C4731,6390.8 4974,6389.7 5188.5,6388.6 C5392.6,6387.6 5568.8,6386.7 5932.5,6310.1 C6296.2,6233.5 6457.8,6163.2 6645,6081.7 C6841.6,5996.1 7064.5,5899.2 7503.8,5806.6 C7943.1,5714 8186.2,5712.9 8400.6,5711.8 C8604.7,5710.8 8780.9,5709.9 9144.6,5633.3 C9508.3,5556.7 9670,5486.3 9857.1,5404.9 C10053.8,5319.3 10276.6,5222.4 10716,5129.8 C11155.3,5037.2 11398.4,5036.1 11612.8,5035 C11816.9,5034 11993.1,5033.1 12356.9,4956.5 L12513.4,5699.3 C12074.1,5791.9 11831,5793.1 11616.6,5794.1 C11412.5,5795.1 11236.3,5796 10872.5,5872.6 C10508.7,5949.2 10347.1,6019.6 10160,6101 C9963.3,6186.6 9740.5,6283.5 9301.2,6376.1 C8861.9,6468.7 8618.9,6469.8 8404.4,6470.9 C8200.3,6471.9 8024.1,6472.8 7660.4,6549.4 C7296.7,6626 7135.1,6696.3 6947.9,6777.8 C6751.3,6863.4 6528.4,6960.3 6089.1,7052.9 C5649.8,7145.5 5406.7,7146.6 5192.3,7147.7 C4988.2,7148.7 4812,7149.6 4448.3,7226.2 C4084.6,7302.8 3923,7373.1 3735.9,7454.6 C3539.2,7540.2 3316.4,7637.1 2877.1,7729.7 C2437.8,7822.3 2194.8,7823.5 1980.3,7824.5 C1776,7825.5 1599.8,7826.3 1236.1,7903 Z" fill="#4B4175" fill-rule="nonzero"></path><path d="M818.4,5920.5 L661.9,5177.7 C1101.2,5085.1 1344.3,5084 1558.7,5082.9 C1762.8,5081.9 1939,5081 2302.7,5004.4 C2666.4,4927.8 2828,4857.5 3015.1,4776 C3211.7,4690.4 3434.6,4593.5 3873.9,4500.9 C4313.2,4408.3 4556.2,4407.2 4770.7,4406.1 C4974.8,4405.1 5151,4404.2 5514.7,4327.6 C5878.4,4251 6040,4180.7 6227.2,4099.2 C6423.8,4013.6 6646.7,3916.7 7086,3824.1 C7525.3,3731.5 7768.3,3730.4 7982.8,3729.3 C8186.9,3728.3 8363.1,3727.4 8726.8,3650.8 C9090.5,3574.2 9252.2,3503.8 9439.3,3422.4 C9636,3336.8 9858.8,3239.9 10298.2,3147.3 C10737.5,3054.7 10980.6,3053.6 11195,3052.5 C11399.1,3051.5 11575.3,3050.6 11939.1,2974 L12095.6,3716.8 C11656.3,3809.4 11413.2,3810.6 11198.8,3811.6 C10994.7,3812.6 10818.5,3813.5 10454.7,3890.1 C10090.9,3966.7 9929.3,4037.1 9742.2,4118.5 C9545.5,4204.1 9322.7,4301 8883.4,4393.6 C8444.1,4486.2 8201,4487.4 7986.6,4488.4 C7782.5,4489.4 7606.3,4490.3 7242.6,4566.9 C6878.9,4643.5 6717.3,4713.8 6530.1,4795.3 C6333.5,4880.9 6110.6,4977.8 5671.3,5070.4 C5232,5163 4988.9,5164.1 4774.5,5165.2 C4570.4,5166.2 4394.2,5167.1 4030.5,5243.7 C3666.8,5320.3 3505.2,5390.6 3318.1,5472.1 C3121.5,5557.7 2898.6,5654.6 2459.3,5747.2 C2020,5839.8 1776.9,5841 1562.5,5842 C1358.4,5843 1182.1,5843.9 818.4,5920.5 Z" fill="#FFFFFF" fill-rule="nonzero"></path><path d="M609.6,4929.3 L453.1,4186.5 C892.4,4093.9 1135.5,4092.8 1349.9,4091.7 C1554,4090.7 1730.2,4089.8 2093.9,4013.2 C2457.6,3936.6 2619.2,3866.3 2806.3,3784.8 C3002.9,3699.2 3225.8,3602.3 3665.1,3509.7 C4104.4,3417.1 4347.5,3416 4561.9,3414.9 C4766,3413.9 4942.2,3413 5305.9,3336.4 C5669.6,3259.8 5831.2,3189.5 6018.4,3108 C6215,3022.4 6437.9,2925.5 6877.2,2832.9 C7316.5,2740.3 7559.5,2739.2 7774,2738.1 C7978.1,2737.1 8154.3,2736.2 8518,2659.6 C8881.8,2583 9043.4,2512.7 9230.5,2431.2 C9427.2,2345.6 9650,2248.7 10089.3,2156.1 C10528.6,2063.5 10771.7,2062.3 10986.1,2061.3 C11190.2,2060.3 11366.4,2059.4 11730.2,1982.8 L11886.7,2725.6 C11447.4,2818.2 11204.3,2819.3 10989.9,2820.4 C10785.8,2821.4 10609.6,2822.3 10245.8,2898.9 C9882.1,2975.5 9720.4,3045.8 9533.3,3127.3 C9336.6,3212.9 9113.8,3309.8 8674.4,3402.4 C8235.1,3495 7992.1,3496.2 7777.6,3497.2 C7573.5,3498.2 7397.3,3499.1 7033.6,3575.7 C6669.9,3652.3 6508.3,3722.6 6321.1,3804.1 C6124.5,3889.7 5901.6,3986.6 5462.3,4079.2 C5023,4171.8 4780,4172.9 4565.5,4174 C4361.4,4175 4185.2,4175.9 3821.5,4252.5 C3457.8,4329.1 3296.2,4399.4 3109.1,4480.9 C2912.5,4566.5 2689.6,4663.4 2250.3,4756 C1811,4848.6 1567.9,4849.7 1353.5,4850.8 C1149.5,4851.8 973.3,4852.7 609.6,4929.3 Z" fill="#FFFFFF" fill-rule="nonzero"></path><path d="M435.5,4103.3 L279,3360.5 C718.3,3267.9 961.4,3266.8 1175.8,3265.7 C1379.9,3264.7 1556.1,3263.8 1919.8,3187.2 C2283.5,3110.6 2445.1,3040.3 2632.3,2958.8 C2828.9,2873.2 3051.8,2776.3 3491.1,2683.7 C3930.4,2591.1 4173.4,2590 4387.9,2588.9 C4592,2587.9 4768.2,2587 5131.9,2510.4 C5495.6,2433.8 5657.2,2363.5 5844.4,2282 C6041,2196.4 6263.9,2099.5 6703.2,2006.9 C7142.5,1914.3 7385.5,1913.2 7600,1912.1 C7804.1,1911.1 7980.3,1910.2 8344,1833.6 C8707.7,1757 8869.4,1686.7 9056.5,1605.2 C9253.2,1519.6 9476,1422.7 9915.4,1330.1 C10354.7,1237.5 10597.8,1236.3 10812.2,1235.3 C11016.3,1234.3 11192.5,1233.4 11556.3,1156.8 L11712.8,1899.6 C11273.5,1992.2 11030.4,1993.4 10816,1994.4 C10611.9,1995.4 10435.7,1996.3 10071.9,2072.9 C9708.1,2149.5 9546.5,2219.8 9359.4,2301.3 C9162.7,2386.8 8939.9,2483.8 8500.6,2576.4 C8061.3,2669 7818.2,2670.2 7603.8,2671.2 C7399.7,2672.2 7223.5,2673.1 6859.8,2749.7 C6496.1,2826.3 6334.5,2896.6 6147.3,2978.1 C5950.7,3063.7 5727.8,3160.6 5288.5,3253.2 C4849.2,3345.8 4606.1,3346.9 4391.7,3348 C4187.6,3349 4011.4,3349.9 3647.7,3426.5 C3284,3503.1 3122.4,3573.4 2935.3,3654.9 C2738.6,3740.5 2515.8,3837.4 2076.5,3930 C1637.2,4022.6 1394.2,4023.8 1179.7,4024.8 C975.5,4025.8 799.3,4026.7 435.5,4103.3 Z" fill="#FFFFFF" fill-rule="nonzero"></path><path d="M191.9,2946.9 L35.4,2204.1 C474.7,2111.5 717.7,2110.4 932.2,2109.3 C1136.3,2108.3 1312.5,2107.4 1676.2,2030.8 C2039.9,1954.2 2201.5,1883.9 2388.6,1802.4 C2585.2,1716.8 2808.1,1619.9 3247.4,1527.3 C3686.7,1434.7 3929.8,1433.5 4144.2,1432.5 C4348.3,1431.5 4524.5,1430.6 4888.2,1354 C5251.9,1277.4 5413.5,1207.1 5600.7,1125.6 C5797.3,1040 6020.2,943.1 6459.5,850.5 C6898.8,757.9 7141.8,756.8 7356.3,755.7 C7560.4,754.7 7736.6,753.8 8100.3,677.2 C8464.1,600.6 8625.7,530.3 8812.8,448.8 C9009.5,363.2 9232.3,266.3 9671.6,173.7 C10110.9,81.1 10354,79.9 10568.4,78.9 C10772.5,77.9 10948.7,77 11312.5,0.4 L11469,743.2 C11029.7,835.8 10786.6,836.9 10572.2,838 C10368.1,839 10191.9,839.9 9828.1,916.5 C9464.3,993.1 9302.8,1063.6 9115.7,1145 C8919,1230.6 8696.2,1327.5 8256.9,1420.1 C7817.6,1512.7 7574.6,1513.8 7360.1,1514.9 C7156,1515.9 6979.8,1516.8 6616.1,1593.4 C6252.4,1670 6090.8,1740.3 5903.6,1821.8 C5707,1907.4 5484.1,2004.3 5044.8,2096.9 C4605.5,2189.5 4362.4,2190.6 4148,2191.6 C3943.9,2192.6 3767.7,2193.5 3404,2270.1 C3040.3,2346.7 2878.7,2417 2691.6,2498.5 C2495,2584.1 2272.1,2681 1832.8,2773.6 C1393.5,2866.2 1150.4,2867.4 936,2868.4 C731.8,2869.4 555.6,2870.2 191.9,2946.9 Z" fill="#FFFFFF" fill-rule="nonzero"></path><path d="M1114.2,7324.7 L957.7,6581.9 C1397,6489.3 1640,6488.2 1854.5,6487.1 C2058.6,6486.1 2234.8,6485.2 2598.5,6408.6 C2962.2,6332 3123.8,6261.7 3310.9,6180.2 C3507.6,6094.6 3730.4,5997.7 4169.7,5905.1 C4609,5812.5 4852,5811.3 5066.5,5810.3 C5270.6,5809.3 5446.8,5808.4 5810.5,5731.8 C6174.2,5655.2 6335.8,5584.9 6523,5503.4 C6719.6,5417.8 6942.5,5320.9 7381.8,5228.3 C7821.1,5135.7 8064.2,5134.6 8278.6,5133.5 C8482.7,5132.5 8658.9,5131.6 9022.6,5055 C9386.3,4978.4 9548,4908 9735.1,4826.6 C9931.8,4741 10154.6,4644.1 10593.9,4551.5 C11033.2,4458.9 11276.3,4457.7 11490.7,4456.7 C11694.8,4455.7 11871,4454.8 12234.8,4378.2 L12391.3,5121 C11952,5213.6 11708.9,5214.8 11494.5,5215.8 C11290.4,5216.8 11114.2,5217.7 10750.4,5294.3 C10386.7,5370.9 10225,5441.2 10037.9,5522.7 C9841.2,5608.3 9618.4,5705.2 9179,5797.8 C8739.7,5890.4 8496.7,5891.5 8282.2,5892.6 C8078.1,5893.6 7901.9,5894.5 7538.2,5971.1 C7174.5,6047.7 7012.9,6118 6825.7,6199.5 C6629.1,6285.1 6406.2,6382 5966.9,6474.6 C5527.6,6567.2 5284.6,6568.3 5070.1,6569.4 C4866,6570.4 4689.8,6571.3 4326.1,6647.9 C3962.4,6724.5 3800.8,6794.8 3613.6,6876.3 C3417,6961.9 3194.1,7058.8 2754.8,7151.4 C2315.5,7244 2072.4,7245.2 1858,7246.2 C1654.2,7247.3 1478,7248.1 1114.2,7324.7 Z" fill="#FFFFFF" fill-rule="nonzero"></path><path d="M931.5,6457.5 L792.4,5797.2 C1227.5,5705.5 1457.9,5704.4 1680.7,5703.3 C1878.5,5702.3 2065.3,5701.4 2433.2,5623.9 C2801.1,5546.4 2972.4,5471.9 3153.8,5392.9 C3358.1,5304 3569.4,5212.1 4004.5,5120.4 C4439.6,5028.7 4670,5027.6 4892.8,5026.5 C5090.6,5025.5 5277.4,5024.6 5645.3,4947.1 C6013.2,4869.6 6184.5,4795.1 6365.9,4716.1 C6570.2,4627.2 6781.5,4535.3 7216.6,4443.6 C7651.7,4351.9 7882.1,4350.8 8104.9,4349.7 C8302.7,4348.7 8489.5,4347.8 8857.4,4270.3 C9225.4,4192.8 9396.7,4118.2 9578,4039.3 C9782.3,3950.4 9993.6,3858.5 10428.7,3766.8 C10863.8,3675.1 11094.2,3674 11317,3672.9 C11514.8,3671.9 11701.6,3671 12069.6,3593.5 L12208.7,4253.8 C11773.6,4345.5 11543.2,4346.6 11320.4,4347.7 C11122.6,4348.7 10935.8,4349.6 10567.8,4427.1 C10199.9,4504.6 10028.5,4579.2 9847.2,4658.1 C9642.9,4747 9431.6,4838.9 8996.5,4930.6 C8561.4,5022.3 8331,5023.4 8108.2,5024.5 C7910.4,5025.5 7723.6,5026.4 7355.7,5103.9 C6987.8,5181.4 6816.5,5255.9 6635.1,5334.9 C6430.8,5423.8 6219.5,5515.7 5784.4,5607.4 C5349.3,5699.1 5118.9,5700.2 4896.1,5701.3 C4698.3,5702.3 4511.5,5703.2 4143.6,5780.7 C3775.7,5858.2 3604.4,5932.7 3423,6011.7 C3218.7,6100.6 3007.4,6192.5 2572.3,6284.2 C2137.2,6375.9 1906.8,6377 1684,6378.1 C1486.3,6379 1299.4,6379.9 931.5,6457.5 Z" fill="#00AFFF" fill-rule="nonzero"></path><path d="M461.6,4227.3 L357.3,3732.1 C784,3642.2 1010,3641.1 1228.6,3640 C1430.8,3639 1621.8,3638.1 1998.1,3558.8 C2374.4,3479.5 2549.5,3403.3 2734.9,3322.7 C2935.3,3235.5 3142.6,3145.3 3569.3,3055.4 C3996,2965.5 4222,2964.4 4440.6,2963.3 C4642.8,2962.3 4833.8,2961.4 5210.1,2882.1 C5586.4,2802.8 5761.5,2726.6 5947,2646 C6147.4,2558.8 6354.7,2468.6 6781.4,2378.7 C7208.1,2288.8 7434.1,2287.7 7652.7,2286.6 C7854.9,2285.6 8045.9,2284.7 8422.2,2205.4 C8798.5,2126.1 8973.7,2049.9 9159.1,1969.2 C9359.6,1882 9566.8,1791.8 9993.6,1701.9 C10420.3,1612 10646.4,1610.9 10865,1609.8 C11067.2,1608.8 11258.2,1607.9 11634.5,1528.6 L11738.8,2023.8 C11312.1,2113.7 11086,2114.8 10867.4,2115.9 C10665.2,2116.9 10474.2,2117.8 10097.9,2197.1 C9721.5,2276.4 9546.4,2352.6 9361,2433.3 C9160.5,2520.5 8953.3,2610.7 8526.5,2700.6 C8099.8,2790.5 7873.8,2791.6 7655.2,2792.7 C7453,2793.7 7262,2794.6 6885.7,2873.9 C6509.4,2953.2 6334.3,3029.4 6148.8,3110 C5948.4,3197.2 5741.1,3287.4 5314.4,3377.3 C4887.7,3467.2 4661.7,3468.3 4443.1,3469.4 C4240.9,3470.4 4049.9,3471.3 3673.6,3550.6 C3297.3,3629.9 3122.2,3706.1 2936.8,3786.7 C2736.4,3873.9 2529.1,3964.1 2102.4,4054 C1675.7,4143.9 1449.7,4145 1231.1,4146.1 C1029,4147.1 838,4148 461.6,4227.3 Z" fill="#00AFFF" fill-rule="nonzero"></path><path d="M674.8,5239.1 L561.8,4702.6 C990.6,4612.3 1217.7,4611.1 1437.4,4610.1 C1638.5,4609.1 1828.4,4608.2 2202.6,4529.3 C2576.8,4450.5 2751,4374.7 2935.4,4294.5 C3136.8,4206.9 3345.1,4116.2 3773.9,4025.9 C4202.7,3935.6 4429.8,3934.4 4649.5,3933.4 C4850.6,3932.4 5040.5,3931.5 5414.7,3852.6 C5788.9,3773.8 5963.1,3698 6147.5,3617.7 C6348.9,3530.1 6557.2,3439.5 6986,3349.1 C7414.8,3258.8 7641.9,3257.6 7861.6,3256.6 C8062.7,3255.6 8252.6,3254.7 8626.8,3175.8 C9001.1,3096.9 9175.2,3021.2 9359.6,2940.9 C9561,2853.3 9769.3,2762.6 10198.1,2672.3 C10626.9,2582 10854.1,2580.8 11073.7,2579.8 C11274.8,2578.8 11464.7,2577.9 11839,2499 L11952,3035.5 C11523.2,3125.9 11296,3127 11076.4,3128 C10875.3,3129 10685.4,3129.9 10311.1,3208.8 C9936.9,3287.7 9762.7,3363.4 9578.3,3443.7 C9376.9,3531.3 9168.6,3622 8739.8,3712.3 C8311,3802.6 8083.9,3803.8 7864.2,3804.8 C7663.1,3805.8 7473.2,3806.7 7099,3885.6 C6724.8,3964.5 6550.6,4040.2 6366.2,4120.5 C6164.8,4208.1 5956.5,4298.7 5527.7,4389.1 C5098.9,4479.4 4871.8,4480.6 4652.1,4481.6 C4451,4482.6 4261.1,4483.5 3886.9,4562.4 C3512.7,4641.2 3338.5,4717 3154.1,4797.2 C2952.7,4884.8 2744.4,4975.4 2315.6,5065.8 C1886.8,5156.1 1659.7,5157.3 1440,5158.3 C1239,5159.4 1049.1,5160.3 674.8,5239.1 Z" fill="#00AFFF" fill-rule="nonzero"></path><path d="M287.6,3401.3 L183.3,2906.1 C610,2816.2 836,2815.1 1054.6,2814 C1256.8,2813 1447.8,2812.1 1824.1,2732.8 C2200.4,2653.5 2375.5,2577.3 2560.9,2496.7 C2761.3,2409.5 2968.6,2319.3 3395.3,2229.4 C3822,2139.5 4048,2138.4 4266.6,2137.3 C4468.8,2136.3 4659.8,2135.4 5036.1,2056.1 C5412.4,1976.8 5587.5,1900.6 5773,1820 C5973.4,1732.8 6180.7,1642.6 6607.4,1552.7 C7034.1,1462.8 7260.1,1461.7 7478.7,1460.6 C7680.9,1459.6 7871.9,1458.7 8248.2,1379.4 C8624.5,1300.1 8799.7,1223.9 8985.1,1143.2 C9185.6,1056 9392.8,965.8 9819.6,875.9 C10246.3,786 10472.4,784.9 10691,783.8 C10893.2,782.8 11084.2,781.9 11460.5,702.6 L11564.8,1197.8 C11138.1,1287.7 10912,1288.8 10693.4,1289.9 C10491.2,1290.9 10300.2,1291.8 9923.9,1371.1 C9547.6,1450.4 9372.4,1526.6 9187,1607.3 C8986.5,1694.5 8779.3,1784.7 8352.5,1874.6 C7925.8,1964.5 7699.8,1965.6 7481.2,1966.7 C7279,1967.7 7088,1968.6 6711.7,2047.9 C6335.4,2127.2 6160.3,2203.4 5974.8,2284 C5774.4,2371.2 5567.1,2461.4 5140.4,2551.3 C4713.7,2641.2 4487.7,2642.3 4269.1,2643.4 C4066.9,2644.4 3875.9,2645.3 3499.6,2724.6 C3123.3,2803.9 2948.2,2880.1 2762.8,2960.7 C2562.4,3047.9 2355.1,3138.1 1928.4,3228 C1501.7,3317.9 1275.7,3319 1057.1,3320.1 C854.9,3321.1 663.9,3322 287.6,3401.3 Z" fill="#00AFFF" fill-rule="nonzero"></path></g></g></g></g></g></svg>