<?xml version="1.0" encoding="UTF-8"?><svg width="4000px" height="4000px" viewBox="0 0 4000 4000" version="1.1" xmlns="http://www.w3.org/2000/svg" xmlns:xlink="http://www.w3.org/1999/xlink"><defs><rect id="path-1" x="0" y="0" width="4000" height="4000"></rect><circle id="path-3" cx="2305.9" cy="2305.8" r="2305.5"></circle><circle id="path-5" cx="2305.9" cy="2305.8" r="2305.5"></circle></defs><g id="Page-1" stroke="none" stroke-width="1" fill="none" fill-rule="evenodd"><g id="pattern"><mask id="mask-2" fill="white"><use xlink:href="#path-1"></use></mask><g id="SVGID_1_"></g><g id="Group" mask="url(#mask-2)"><g transform="translate(-2044.000000, -1827.000000)"><rect id="Rectangle-path" fill="#FFFFFF" fill-rule="nonzero" x="2044" y="1827" width="4000" height="4000"></rect><g id="Group" stroke-width="1" fill="none" fill-rule="evenodd" transform="translate(2439.000000, 1563.000000)"><circle id="Oval" fill="#00AFFF" fill-rule="nonzero" cx="45.3" cy="1359.3" r="44.5"></circle><circle id="Oval" fill="#00AFFF" fill-rule="nonzero" cx="490.9" cy="1359.3" r="44.5"></circle><circle id="Oval" fill="#00AFFF" fill-rule="nonzero" cx="936.6" cy="1359.3" r="22.3"></circle><circle id="Oval" fill="#00AFFF" fill-rule="nonzero" cx="1382.2" cy="1359.3" r="22.3"></circle><circle id="Oval" fill="#00AFFF" fill-rule="nonzero" cx="1827.8" cy="1359.3" r="14.8"></circle><circle id="Oval" fill="#00AFFF" fill-rule="nonzero" cx="2273.4" cy="1359.3" r="7.4"></circle><circle id="Oval" fill="#00AFFF" fill-rule="nonzero" cx="45.3" cy="913.7" r="44.5"></circle><circle id="Oval" fill="#00AFFF" fill-rule="nonzero" cx="490.9" cy="913.7" r="22.3"></circle><circle id="Oval" fill="#00AFFF" fill-rule="nonzero" cx="936.6" cy="913.7" r="22.3"></circle><circle id="Oval" fill="#00AFFF" fill-rule="nonzero" cx="1382.2" cy="913.7" r="14.8"></circle><circle id="Oval" fill="#00AFFF" fill-rule="nonzero" cx="1827.8" cy="913.7" r="7.4"></circle><circle id="Oval" fill="#00AFFF" fill-rule="nonzero" cx="45.3" cy="2250.5" r="44.5"></circle><circle id="Oval" fill="#00AFFF" fill-rule="nonzero" cx="490.9" cy="2250.5" r="44.5"></circle><circle id="Oval" fill="#00AFFF" fill-rule="nonzero" cx="936.6" cy="2250.5" r="44.5"></circle><circle id="Oval" fill="#00AFFF" fill-rule="nonzero" cx="1382.2" cy="2250.5" r="44.5"></circle><circle id="Oval" fill="#00AFFF" fill-rule="nonzero" cx="1827.8" cy="2250.5" r="22.3"></circle><circle id="Oval" fill="#00AFFF" fill-rule="nonzero" cx="2273.4" cy="2250.5" r="22.3"></circle><circle id="Oval" fill="#00AFFF" fill-rule="nonzero" cx="2719.1" cy="2250.5" r="14.8"></circle><circle id="Oval" fill="#00AFFF" fill-rule="nonzero" cx="3164.7" cy="2250.5" r="7.4"></circle><circle id="Oval" fill="#00AFFF" fill-rule="nonzero" cx="45.3" cy="1804.9" r="44.5"></circle><circle id="Oval" fill="#00AFFF" fill-rule="nonzero" cx="490.9" cy="1804.9" r="44.5"></circle><circle id="Oval" fill="#00AFFF" fill-rule="nonzero" cx="936.6" cy="1804.9" r="44.5"></circle><circle id="Oval" fill="#00AFFF" fill-rule="nonzero" cx="1382.2" cy="1804.9" r="22.3"></circle><circle id="Oval" fill="#00AFFF" fill-rule="nonzero" cx="1827.8" cy="1804.9" r="22.3"></circle><circle id="Oval" fill="#00AFFF" fill-rule="nonzero" cx="2273.4" cy="1804.9" r="14.8"></circle><circle id="Oval" fill="#00AFFF" fill-rule="nonzero" cx="2719.1" cy="1804.9" r="7.4"></circle><circle id="Oval" fill="#00AFFF" fill-rule="nonzero" cx="45.3" cy="3141.8" r="44.5"></circle><circle id="Oval" fill="#00AFFF" fill-rule="nonzero" cx="490.9" cy="3141.8" r="44.5"></circle><circle id="Oval" fill="#00AFFF" fill-rule="nonzero" cx="936.6" cy="3141.8" r="44.5"></circle><circle id="Oval" fill="#00AFFF" fill-rule="nonzero" cx="1382.2" cy="3141.8" r="44.5"></circle><circle id="Oval" fill="#00AFFF" fill-rule="nonzero" cx="1827.8" cy="3141.8" r="44.5"></circle><circle id="Oval" fill="#00AFFF" fill-rule="nonzero" cx="2273.4" cy="3141.8" r="44.5"></circle><circle id="Oval" fill="#00AFFF" fill-rule="nonzero" cx="2719.1" cy="3141.8" r="22.3"></circle><circle id="Oval" fill="#00AFFF" fill-rule="nonzero" cx="3164.7" cy="3141.8" r="22.3"></circle><circle id="Oval" fill="#00AFFF" fill-rule="nonzero" cx="45.3" cy="2696.2" r="44.5"></circle><circle id="Oval" fill="#00AFFF" fill-rule="nonzero" cx="490.9" cy="2696.2" r="44.5"></circle><circle id="Oval" fill="#00AFFF" fill-rule="nonzero" cx="936.6" cy="2696.2" r="44.5"></circle><circle id="Oval" fill="#00AFFF" fill-rule="nonzero" cx="1382.2" cy="2696.2" r="44.5"></circle><circle id="Oval" fill="#00AFFF" fill-rule="nonzero" cx="1827.8" cy="2696.2" r="44.5"></circle><circle id="Oval" fill="#00AFFF" fill-rule="nonzero" cx="2273.4" cy="2696.2" r="22.3"></circle><circle id="Oval" fill="#00AFFF" fill-rule="nonzero" cx="2719.1" cy="2696.2" r="22.3"></circle><circle id="Oval" fill="#00AFFF" fill-rule="nonzero" cx="3164.7" cy="2696.2" r="14.8"></circle><circle id="Oval" fill="#00AFFF" fill-rule="nonzero" cx="45.3" cy="4033.1" r="44.5"></circle><circle id="Oval" fill="#00AFFF" fill-rule="nonzero" cx="490.9" cy="4033.1" r="44.5"></circle><circle id="Oval" fill="#00AFFF" fill-rule="nonzero" cx="936.6" cy="4033.1" r="44.5"></circle><circle id="Oval" fill="#00AFFF" fill-rule="nonzero" cx="1382.2" cy="4033.1" r="44.5"></circle><circle id="Oval" fill="#00AFFF" fill-rule="nonzero" cx="1827.8" cy="4033.1" r="44.5"></circle><circle id="Oval" fill="#00AFFF" fill-rule="nonzero" cx="2273.4" cy="4033.1" r="44.5"></circle><circle id="Oval" fill="#00AFFF" fill-rule="nonzero" cx="2719.1" cy="4033.1" r="44.5"></circle><circle id="Oval" fill="#00AFFF" fill-rule="nonzero" cx="3164.7" cy="4033.1" r="44.5"></circle><circle id="Oval" fill="#00AFFF" fill-rule="nonzero" cx="45.3" cy="3587.4" r="44.5"></circle><circle id="Oval" fill="#00AFFF" fill-rule="nonzero" cx="490.9" cy="3587.4" r="44.5"></circle><circle id="Oval" fill="#00AFFF" fill-rule="nonzero" cx="936.6" cy="3587.4" r="44.5"></circle><circle id="Oval" fill="#00AFFF" fill-rule="nonzero" cx="1382.2" cy="3587.4" r="44.5"></circle><circle id="Oval" fill="#00AFFF" fill-rule="nonzero" cx="1827.8" cy="3587.4" r="44.5"></circle><circle id="Oval" fill="#00AFFF" fill-rule="nonzero" cx="2273.4" cy="3587.4" r="44.5"></circle><circle id="Oval" fill="#00AFFF" fill-rule="nonzero" cx="2719.1" cy="3587.4" r="44.5"></circle><circle id="Oval" fill="#00AFFF" fill-rule="nonzero" cx="3164.7" cy="3587.4" r="22.3"></circle><circle id="Oval" fill="#00AFFF" fill-rule="nonzero" cx="45.3" cy="468" r="22.3"></circle><circle id="Oval" fill="#00AFFF" fill-rule="nonzero" cx="490.9" cy="468" r="22.3"></circle><circle id="Oval" fill="#00AFFF" fill-rule="nonzero" cx="936.6" cy="468" r="14.8"></circle><circle id="Oval" fill="#00AFFF" fill-rule="nonzero" cx="1382.2" cy="468" r="7.4"></circle></g><g id="Group" stroke-width="1" fill="none" fill-rule="evenodd" transform="translate(2343.000000, 2740.000000)"><circle id="Oval" fill="#000000" fill-rule="nonzero" cx="1359.3" cy="2718.7" r="44.5"></circle><circle id="Oval" fill="#000000" fill-rule="nonzero" cx="1359.3" cy="2273" r="22.3"></circle><circle id="Oval" fill="#000000" fill-rule="nonzero" cx="1359.3" cy="1827.4" r="22.3"></circle><circle id="Oval" fill="#000000" fill-rule="nonzero" cx="1359.3" cy="1381.8" r="14.8"></circle><circle id="Oval" fill="#000000" fill-rule="nonzero" cx="1359.3" cy="936.1" r="7.4"></circle><circle id="Oval" fill="#000000" fill-rule="nonzero" cx="913.7" cy="2718.7" r="22.3"></circle><circle id="Oval" fill="#000000" fill-rule="nonzero" cx="913.7" cy="2273" r="22.3"></circle><circle id="Oval" fill="#000000" fill-rule="nonzero" cx="913.7" cy="1827.4" r="14.8"></circle><circle id="Oval" fill="#000000" fill-rule="nonzero" cx="913.7" cy="1381.8" r="7.4"></circle><circle id="Oval" fill="#000000" fill-rule="nonzero" cx="2250.6" cy="2718.7" r="44.5"></circle><circle id="Oval" fill="#000000" fill-rule="nonzero" cx="2250.6" cy="2273" r="44.5"></circle><circle id="Oval" fill="#000000" fill-rule="nonzero" cx="2250.6" cy="1827.4" r="44.5"></circle><circle id="Oval" fill="#000000" fill-rule="nonzero" cx="2250.6" cy="1381.8" r="22.3"></circle><circle id="Oval" fill="#000000" fill-rule="nonzero" cx="2250.6" cy="936.1" r="22.3"></circle><circle id="Oval" fill="#000000" fill-rule="nonzero" cx="2250.6" cy="490.5" r="14.8"></circle><circle id="Oval" fill="#000000" fill-rule="nonzero" cx="2250.6" cy="44.9" r="7.4"></circle><circle id="Oval" fill="#000000" fill-rule="nonzero" cx="1805" cy="2718.7" r="44.5"></circle><circle id="Oval" fill="#000000" fill-rule="nonzero" cx="1805" cy="2273" r="44.5"></circle><circle id="Oval" fill="#000000" fill-rule="nonzero" cx="1805" cy="1827.4" r="22.3"></circle><circle id="Oval" fill="#000000" fill-rule="nonzero" cx="1805" cy="1381.8" r="22.3"></circle><circle id="Oval" fill="#000000" fill-rule="nonzero" cx="1805" cy="936.1" r="14.8"></circle><circle id="Oval" fill="#000000" fill-rule="nonzero" cx="1805" cy="490.5" r="7.4"></circle><circle id="Oval" fill="#000000" fill-rule="nonzero" cx="3141.9" cy="2718.7" r="44.5"></circle><circle id="Oval" fill="#000000" fill-rule="nonzero" cx="3141.9" cy="2273" r="44.5"></circle><circle id="Oval" fill="#000000" fill-rule="nonzero" cx="3141.9" cy="1827.4" r="44.5"></circle><circle id="Oval" fill="#000000" fill-rule="nonzero" cx="3141.9" cy="1381.8" r="44.5"></circle><circle id="Oval" fill="#000000" fill-rule="nonzero" cx="3141.9" cy="936.1" r="44.5"></circle><circle id="Oval" fill="#000000" fill-rule="nonzero" cx="3141.9" cy="490.5" r="22.3"></circle><circle id="Oval" fill="#000000" fill-rule="nonzero" cx="3141.9" cy="44.9" r="22.3"></circle><circle id="Oval" fill="#000000" fill-rule="nonzero" cx="2696.2" cy="2718.7" r="44.5"></circle><circle id="Oval" fill="#000000" fill-rule="nonzero" cx="2696.2" cy="2273" r="44.5"></circle><circle id="Oval" fill="#000000" fill-rule="nonzero" cx="2696.2" cy="1827.4" r="44.5"></circle><circle id="Oval" fill="#000000" fill-rule="nonzero" cx="2696.2" cy="1381.8" r="44.5"></circle><circle id="Oval" fill="#000000" fill-rule="nonzero" cx="2696.2" cy="936.1" r="22.3"></circle><circle id="Oval" fill="#000000" fill-rule="nonzero" cx="2696.2" cy="490.5" r="22.3"></circle><circle id="Oval" fill="#000000" fill-rule="nonzero" cx="2696.2" cy="44.9" r="14.8"></circle><circle id="Oval" fill="#000000" fill-rule="nonzero" cx="3587.5" cy="2718.7" r="44.5"></circle><circle id="Oval" fill="#000000" fill-rule="nonzero" cx="3587.5" cy="2273" r="44.5"></circle><circle id="Oval" fill="#000000" fill-rule="nonzero" cx="3587.5" cy="1827.4" r="44.5"></circle><circle id="Oval" fill="#000000" fill-rule="nonzero" cx="3587.5" cy="1381.8" r="44.5"></circle><circle id="Oval" fill="#000000" fill-rule="nonzero" cx="3587.5" cy="936.1" r="44.5"></circle><circle id="Oval" fill="#000000" fill-rule="nonzero" cx="3587.5" cy="490.5" r="44.5"></circle><circle id="Oval" fill="#000000" fill-rule="nonzero" cx="3587.5" cy="44.9" r="22.3"></circle><circle id="Oval" fill="#000000" fill-rule="nonzero" cx="468.1" cy="2718.7" r="22.3"></circle><circle id="Oval" fill="#000000" fill-rule="nonzero" cx="468.1" cy="2273" r="14.8"></circle><circle id="Oval" fill="#000000" fill-rule="nonzero" cx="468.1" cy="1827.4" r="7.4"></circle><circle id="Oval" fill="#000000" fill-rule="nonzero" cx="22.4" cy="2718.7" r="14.8"></circle><circle id="Oval" fill="#000000" fill-rule="nonzero" cx="22.4" cy="2273" r="7.4"></circle></g><circle id="Oval" fill="#00AFFF" fill-rule="nonzero" cx="2063.3" cy="5798.4" r="2062.4"></circle><g id="Group" stroke-width="1" fill="none" fill-rule="evenodd" transform="translate(3634.000000, 0.000000)"><circle id="Oval" fill="#EE2223" fill-rule="nonzero" cx="2305.9" cy="2305.8" r="2305.5"></circle><g id="Clipped"><g><mask id="mask-4" fill="white"><use xlink:href="#path-3"></use></mask><g id="SVGID_3_"></g><g id="Group" mask="url(#mask-4)"><g transform="translate(-724.000000, -616.000000)"><ellipse id="Oval" fill="#00AFFF" fill-rule="nonzero" transform="translate(3178.659870, 3335.421310) rotate(-14.790805) translate(-3178.659870, -3335.421310) " cx="3178.65987" cy="3335.42131" rx="2554.79414" ry="2775.00225"></ellipse><g id="Clipped" stroke-width="1" fill="none" fill-rule="evenodd" opacity="0.75"><g id="Group" fill="#000000" fill-rule="nonzero"><ellipse id="Oval" transform="translate(3178.659870, 3335.421310) rotate(-14.790805) translate(-3178.659870, -3335.421310) " cx="3178.65987" cy="3335.42131" rx="2554.79414" ry="2775.00225"></ellipse></g></g></g></g></g><g><mask id="mask-6" fill="white"><use xlink:href="#path-5"></use></mask><g id="SVGID_3_"></g><g id="Group" mask="url(#mask-6)"><g transform="translate(-689.000000, 2054.000000)"><g transform="translate(0.000000, 386.000000)"><circle id="Oval" fill="#00AFFF" fill-rule="nonzero" cx="39.3" cy="1183.5" r="38.8"></circle><circle id="Oval" fill="#00AFFF" fill-rule="nonzero" cx="427.2" cy="1183.5" r="38.8"></circle><circle id="Oval" fill="#00AFFF" fill-rule="nonzero" cx="815" cy="1183.5" r="19.4"></circle><circle id="Oval" fill="#00AFFF" fill-rule="nonzero" cx="1202.9" cy="1183.5" r="19.4"></circle><circle id="Oval" fill="#00AFFF" fill-rule="nonzero" cx="1590.7" cy="1183.5" r="12.9"></circle><circle id="Oval" fill="#00AFFF" fill-rule="nonzero" cx="1978.6" cy="1183.5" r="6.5"></circle><circle id="Oval" fill="#00AFFF" fill-rule="nonzero" cx="39.3" cy="795.6" r="38.8"></circle><circle id="Oval" fill="#00AFFF" fill-rule="nonzero" cx="427.2" cy="795.6" r="19.4"></circle><circle id="Oval" fill="#00AFFF" fill-rule="nonzero" cx="815" cy="795.6" r="19.4"></circle><circle id="Oval" fill="#00AFFF" fill-rule="nonzero" cx="1202.9" cy="795.6" r="12.9"></circle><circle id="Oval" fill="#00AFFF" fill-rule="nonzero" cx="1590.7" cy="795.6" r="6.5"></circle><circle id="Oval" fill="#00AFFF" fill-rule="nonzero" cx="39.3" cy="1959.2" r="38.8"></circle><circle id="Oval" fill="#00AFFF" fill-rule="nonzero" cx="427.2" cy="1959.2" r="38.8"></circle><circle id="Oval" fill="#00AFFF" fill-rule="nonzero" cx="815" cy="1959.2" r="38.8"></circle><circle id="Oval" fill="#00AFFF" fill-rule="nonzero" cx="1202.9" cy="1959.2" r="38.8"></circle><circle id="Oval" fill="#00AFFF" fill-rule="nonzero" cx="1590.7" cy="1959.2" r="19.4"></circle><circle id="Oval" fill="#00AFFF" fill-rule="nonzero" cx="1978.6" cy="1959.2" r="19.4"></circle><circle id="Oval" fill="#00AFFF" fill-rule="nonzero" cx="2366.5" cy="1959.2" r="12.9"></circle><circle id="Oval" fill="#00AFFF" fill-rule="nonzero" cx="2754.3" cy="1959.2" r="6.5"></circle><circle id="Oval" fill="#00AFFF" fill-rule="nonzero" cx="39.3" cy="1571.3" r="38.8"></circle><circle id="Oval" fill="#00AFFF" fill-rule="nonzero" cx="427.2" cy="1571.3" r="38.8"></circle><circle id="Oval" fill="#00AFFF" fill-rule="nonzero" cx="815" cy="1571.3" r="38.8"></circle><circle id="Oval" fill="#00AFFF" fill-rule="nonzero" cx="1202.9" cy="1571.3" r="19.4"></circle><circle id="Oval" fill="#00AFFF" fill-rule="nonzero" cx="1590.7" cy="1571.3" r="19.4"></circle><circle id="Oval" fill="#00AFFF" fill-rule="nonzero" cx="1978.6" cy="1571.3" r="12.9"></circle><circle id="Oval" fill="#00AFFF" fill-rule="nonzero" cx="2366.5" cy="1571.3" r="6.5"></circle><circle id="Oval" fill="#00AFFF" fill-rule="nonzero" cx="39.3" cy="407.7" r="19.4"></circle><circle id="Oval" fill="#00AFFF" fill-rule="nonzero" cx="427.2" cy="407.7" r="19.4"></circle><circle id="Oval" fill="#00AFFF" fill-rule="nonzero" cx="815" cy="407.7" r="12.9"></circle><circle id="Oval" fill="#00AFFF" fill-rule="nonzero" cx="1202.9" cy="407.7" r="6.5"></circle><circle id="Oval" fill="#00AFFF" fill-rule="nonzero" cx="39.3" cy="19.9" r="19.4"></circle><circle id="Oval" fill="#00AFFF" fill-rule="nonzero" cx="427.2" cy="19.9" r="12.9"></circle><circle id="Oval" fill="#00AFFF" fill-rule="nonzero" cx="815" cy="19.9" r="6.5"></circle></g><g transform="translate(196.000000, 190.000000)"><circle id="Oval" fill="#00AFFF" fill-rule="nonzero" cx="39.3" cy="1183.5" r="38.8"></circle><circle id="Oval" fill="#00AFFF" fill-rule="nonzero" cx="427.2" cy="1183.5" r="38.8"></circle><circle id="Oval" fill="#00AFFF" fill-rule="nonzero" cx="815" cy="1183.5" r="19.4"></circle><circle id="Oval" fill="#00AFFF" fill-rule="nonzero" cx="1202.9" cy="1183.5" r="19.4"></circle><circle id="Oval" fill="#00AFFF" fill-rule="nonzero" cx="1590.7" cy="1183.5" r="12.9"></circle><circle id="Oval" fill="#00AFFF" fill-rule="nonzero" cx="1978.6" cy="1183.5" r="6.5"></circle><circle id="Oval" fill="#00AFFF" fill-rule="nonzero" cx="39.3" cy="795.6" r="38.8"></circle><circle id="Oval" fill="#00AFFF" fill-rule="nonzero" cx="427.2" cy="795.6" r="19.4"></circle><circle id="Oval" fill="#00AFFF" fill-rule="nonzero" cx="815" cy="795.6" r="19.4"></circle><circle id="Oval" fill="#00AFFF" fill-rule="nonzero" cx="1202.9" cy="795.6" r="12.9"></circle><circle id="Oval" fill="#00AFFF" fill-rule="nonzero" cx="1590.7" cy="795.6" r="6.5"></circle><circle id="Oval" fill="#00AFFF" fill-rule="nonzero" cx="39.3" cy="1959.2" r="38.8"></circle><circle id="Oval" fill="#00AFFF" fill-rule="nonzero" cx="427.2" cy="1959.2" r="38.8"></circle><circle id="Oval" fill="#00AFFF" fill-rule="nonzero" cx="815" cy="1959.2" r="38.8"></circle><circle id="Oval" fill="#00AFFF" fill-rule="nonzero" cx="1202.9" cy="1959.2" r="38.8"></circle><circle id="Oval" fill="#00AFFF" fill-rule="nonzero" cx="1590.7" cy="1959.2" r="19.4"></circle><circle id="Oval" fill="#00AFFF" fill-rule="nonzero" cx="1978.6" cy="1959.2" r="19.4"></circle><circle id="Oval" fill="#00AFFF" fill-rule="nonzero" cx="2366.4" cy="1959.2" r="12.9"></circle><circle id="Oval" fill="#00AFFF" fill-rule="nonzero" cx="2754.3" cy="1959.2" r="6.5"></circle><circle id="Oval" fill="#00AFFF" fill-rule="nonzero" cx="39.3" cy="1571.3" r="38.8"></circle><circle id="Oval" fill="#00AFFF" fill-rule="nonzero" cx="427.2" cy="1571.3" r="38.8"></circle><circle id="Oval" fill="#00AFFF" fill-rule="nonzero" cx="815" cy="1571.3" r="38.8"></circle><circle id="Oval" fill="#00AFFF" fill-rule="nonzero" cx="1202.9" cy="1571.3" r="19.4"></circle><circle id="Oval" fill="#00AFFF" fill-rule="nonzero" cx="1590.7" cy="1571.3" r="19.4"></circle><circle id="Oval" fill="#00AFFF" fill-rule="nonzero" cx="1978.6" cy="1571.3" r="12.9"></circle><circle id="Oval" fill="#00AFFF" fill-rule="nonzero" cx="2366.4" cy="1571.3" r="6.5"></circle><circle id="Oval" fill="#00AFFF" fill-rule="nonzero" cx="39.3" cy="2347.1" r="38.8"></circle><circle id="Oval" fill="#00AFFF" fill-rule="nonzero" cx="427.2" cy="2347.1" r="38.8"></circle><circle id="Oval" fill="#00AFFF" fill-rule="nonzero" cx="815" cy="2347.1" r="38.8"></circle><circle id="Oval" fill="#00AFFF" fill-rule="nonzero" cx="1202.9" cy="2347.1" r="38.8"></circle><circle id="Oval" fill="#00AFFF" fill-rule="nonzero" cx="1590.7" cy="2347.1" r="38.8"></circle><circle id="Oval" fill="#00AFFF" fill-rule="nonzero" cx="1978.6" cy="2347.1" r="19.4"></circle><circle id="Oval" fill="#00AFFF" fill-rule="nonzero" cx="2366.4" cy="2347.1" r="19.4"></circle><circle id="Oval" fill="#00AFFF" fill-rule="nonzero" cx="2754.3" cy="2347.1" r="12.9"></circle><circle id="Oval" fill="#00AFFF" fill-rule="nonzero" cx="39.3" cy="407.8" r="19.4"></circle><circle id="Oval" fill="#00AFFF" fill-rule="nonzero" cx="427.2" cy="407.8" r="19.4"></circle><circle id="Oval" fill="#00AFFF" fill-rule="nonzero" cx="815" cy="407.8" r="12.9"></circle><circle id="Oval" fill="#00AFFF" fill-rule="nonzero" cx="1202.9" cy="407.8" r="6.5"></circle><circle id="Oval" fill="#00AFFF" fill-rule="nonzero" cx="39.3" cy="19.9" r="19.4"></circle><circle id="Oval" fill="#00AFFF" fill-rule="nonzero" cx="427.2" cy="19.9" r="12.9"></circle><circle id="Oval" fill="#00AFFF" fill-rule="nonzero" cx="815" cy="19.9" r="6.5"></circle></g><g transform="translate(0.000000, 196.000000)"><circle id="Oval" fill="#00AFFF" fill-rule="nonzero" cx="39.3" cy="1183.2" r="38.8"></circle><circle id="Oval" fill="#00AFFF" fill-rule="nonzero" cx="427.2" cy="1183.2" r="38.8"></circle><circle id="Oval" fill="#00AFFF" fill-rule="nonzero" cx="815" cy="1183.2" r="19.4"></circle><circle id="Oval" fill="#00AFFF" fill-rule="nonzero" cx="1202.9" cy="1183.2" r="19.4"></circle><circle id="Oval" fill="#00AFFF" fill-rule="nonzero" cx="1590.7" cy="1183.2" r="12.9"></circle><circle id="Oval" fill="#00AFFF" fill-rule="nonzero" cx="1978.6" cy="1183.2" r="6.5"></circle><circle id="Oval" fill="#00AFFF" fill-rule="nonzero" cx="39.3" cy="795.4" r="38.8"></circle><circle id="Oval" fill="#00AFFF" fill-rule="nonzero" cx="427.2" cy="795.4" r="19.4"></circle><circle id="Oval" fill="#00AFFF" fill-rule="nonzero" cx="815" cy="795.4" r="19.4"></circle><circle id="Oval" fill="#00AFFF" fill-rule="nonzero" cx="1202.9" cy="795.4" r="12.9"></circle><circle id="Oval" fill="#00AFFF" fill-rule="nonzero" cx="1590.7" cy="795.4" r="6.5"></circle><circle id="Oval" fill="#00AFFF" fill-rule="nonzero" cx="39.3" cy="1959" r="38.8"></circle><circle id="Oval" fill="#00AFFF" fill-rule="nonzero" cx="427.2" cy="1959" r="38.8"></circle><circle id="Oval" fill="#00AFFF" fill-rule="nonzero" cx="815" cy="1959" r="38.8"></circle><circle id="Oval" fill="#00AFFF" fill-rule="nonzero" cx="1202.9" cy="1959" r="38.8"></circle><circle id="Oval" fill="#00AFFF" fill-rule="nonzero" cx="1590.7" cy="1959" r="19.4"></circle><circle id="Oval" fill="#00AFFF" fill-rule="nonzero" cx="1978.6" cy="1959" r="19.4"></circle><circle id="Oval" fill="#00AFFF" fill-rule="nonzero" cx="2366.5" cy="1959" r="12.9"></circle><circle id="Oval" fill="#00AFFF" fill-rule="nonzero" cx="2754.3" cy="1959" r="6.5"></circle><circle id="Oval" fill="#00AFFF" fill-rule="nonzero" cx="39.3" cy="1571.1" r="38.8"></circle><circle id="Oval" fill="#00AFFF" fill-rule="nonzero" cx="427.2" cy="1571.1" r="38.8"></circle><circle id="Oval" fill="#00AFFF" fill-rule="nonzero" cx="815" cy="1571.1" r="38.8"></circle><circle id="Oval" fill="#00AFFF" fill-rule="nonzero" cx="1202.9" cy="1571.1" r="19.4"></circle><circle id="Oval" fill="#00AFFF" fill-rule="nonzero" cx="1590.7" cy="1571.1" r="19.4"></circle><circle id="Oval" fill="#00AFFF" fill-rule="nonzero" cx="1978.6" cy="1571.1" r="12.9"></circle><circle id="Oval" fill="#00AFFF" fill-rule="nonzero" cx="2366.5" cy="1571.1" r="6.5"></circle><circle id="Oval" fill="#00AFFF" fill-rule="nonzero" cx="39.3" cy="2346.8" r="38.8"></circle><circle id="Oval" fill="#00AFFF" fill-rule="nonzero" cx="427.2" cy="2346.8" r="38.8"></circle><circle id="Oval" fill="#00AFFF" fill-rule="nonzero" cx="815" cy="2346.8" r="38.8"></circle><circle id="Oval" fill="#00AFFF" fill-rule="nonzero" cx="1202.9" cy="2346.8" r="38.8"></circle><circle id="Oval" fill="#00AFFF" fill-rule="nonzero" cx="1590.7" cy="2346.8" r="38.8"></circle><circle id="Oval" fill="#00AFFF" fill-rule="nonzero" cx="1978.6" cy="2346.8" r="19.4"></circle><circle id="Oval" fill="#00AFFF" fill-rule="nonzero" cx="2366.5" cy="2346.8" r="19.4"></circle><circle id="Oval" fill="#00AFFF" fill-rule="nonzero" cx="2754.3" cy="2346.8" r="12.9"></circle><circle id="Oval" fill="#00AFFF" fill-rule="nonzero" cx="39.3" cy="407.5" r="19.4"></circle><circle id="Oval" fill="#00AFFF" fill-rule="nonzero" cx="427.2" cy="407.5" r="19.4"></circle><circle id="Oval" fill="#00AFFF" fill-rule="nonzero" cx="815" cy="407.5" r="12.9"></circle><circle id="Oval" fill="#00AFFF" fill-rule="nonzero" cx="1202.9" cy="407.5" r="6.5"></circle><circle id="Oval" fill="#00AFFF" fill-rule="nonzero" cx="39.3" cy="19.7" r="19.4"></circle><circle id="Oval" fill="#00AFFF" fill-rule="nonzero" cx="427.2" cy="19.7" r="12.9"></circle><circle id="Oval" fill="#00AFFF" fill-rule="nonzero" cx="815" cy="19.7" r="6.5"></circle></g><g transform="translate(196.000000, 0.000000)"><circle id="Oval" fill="#00AFFF" fill-rule="nonzero" cx="39.3" cy="1183.3" r="38.8"></circle><circle id="Oval" fill="#00AFFF" fill-rule="nonzero" cx="427.2" cy="1183.3" r="38.8"></circle><circle id="Oval" fill="#00AFFF" fill-rule="nonzero" cx="815" cy="1183.3" r="19.4"></circle><circle id="Oval" fill="#00AFFF" fill-rule="nonzero" cx="1202.9" cy="1183.3" r="19.4"></circle><circle id="Oval" fill="#00AFFF" fill-rule="nonzero" cx="1590.7" cy="1183.3" r="12.9"></circle><circle id="Oval" fill="#00AFFF" fill-rule="nonzero" cx="1978.6" cy="1183.3" r="6.5"></circle><circle id="Oval" fill="#00AFFF" fill-rule="nonzero" cx="39.3" cy="795.4" r="38.8"></circle><circle id="Oval" fill="#00AFFF" fill-rule="nonzero" cx="427.2" cy="795.4" r="19.4"></circle><circle id="Oval" fill="#00AFFF" fill-rule="nonzero" cx="815" cy="795.4" r="19.4"></circle><circle id="Oval" fill="#00AFFF" fill-rule="nonzero" cx="1202.9" cy="795.4" r="12.9"></circle><circle id="Oval" fill="#00AFFF" fill-rule="nonzero" cx="1590.7" cy="795.4" r="6.5"></circle><circle id="Oval" fill="#00AFFF" fill-rule="nonzero" cx="39.3" cy="1959" r="38.8"></circle><circle id="Oval" fill="#00AFFF" fill-rule="nonzero" cx="427.2" cy="1959" r="38.8"></circle><circle id="Oval" fill="#00AFFF" fill-rule="nonzero" cx="815" cy="1959" r="38.8"></circle><circle id="Oval" fill="#00AFFF" fill-rule="nonzero" cx="1202.9" cy="1959" r="38.8"></circle><circle id="Oval" fill="#00AFFF" fill-rule="nonzero" cx="1590.7" cy="1959" r="19.4"></circle><circle id="Oval" fill="#00AFFF" fill-rule="nonzero" cx="1978.6" cy="1959" r="19.4"></circle><circle id="Oval" fill="#00AFFF" fill-rule="nonzero" cx="2366.4" cy="1959" r="12.9"></circle><circle id="Oval" fill="#00AFFF" fill-rule="nonzero" cx="2754.3" cy="1959" r="6.5"></circle><circle id="Oval" fill="#00AFFF" fill-rule="nonzero" cx="39.3" cy="1571.1" r="38.8"></circle><circle id="Oval" fill="#00AFFF" fill-rule="nonzero" cx="427.2" cy="1571.1" r="38.8"></circle><circle id="Oval" fill="#00AFFF" fill-rule="nonzero" cx="815" cy="1571.1" r="38.8"></circle><circle id="Oval" fill="#00AFFF" fill-rule="nonzero" cx="1202.9" cy="1571.1" r="19.4"></circle><circle id="Oval" fill="#00AFFF" fill-rule="nonzero" cx="1590.7" cy="1571.1" r="19.4"></circle><circle id="Oval" fill="#00AFFF" fill-rule="nonzero" cx="1978.6" cy="1571.1" r="12.9"></circle><circle id="Oval" fill="#00AFFF" fill-rule="nonzero" cx="2366.4" cy="1571.1" r="6.5"></circle><circle id="Oval" fill="#00AFFF" fill-rule="nonzero" cx="39.3" cy="2346.8" r="38.8"></circle><circle id="Oval" fill="#00AFFF" fill-rule="nonzero" cx="427.2" cy="2346.8" r="38.8"></circle><circle id="Oval" fill="#00AFFF" fill-rule="nonzero" cx="815" cy="2346.8" r="38.8"></circle><circle id="Oval" fill="#00AFFF" fill-rule="nonzero" cx="1202.9" cy="2346.8" r="38.8"></circle><circle id="Oval" fill="#00AFFF" fill-rule="nonzero" cx="1590.7" cy="2346.8" r="38.8"></circle><circle id="Oval" fill="#00AFFF" fill-rule="nonzero" cx="1978.6" cy="2346.8" r="19.4"></circle><circle id="Oval" fill="#00AFFF" fill-rule="nonzero" cx="2366.4" cy="2346.8" r="19.4"></circle><circle id="Oval" fill="#00AFFF" fill-rule="nonzero" cx="2754.3" cy="2346.8" r="12.9"></circle><circle id="Oval" fill="#00AFFF" fill-rule="nonzero" cx="39.3" cy="407.5" r="19.4"></circle><circle id="Oval" fill="#00AFFF" fill-rule="nonzero" cx="427.2" cy="407.5" r="19.4"></circle><circle id="Oval" fill="#00AFFF" fill-rule="nonzero" cx="815" cy="407.5" r="12.9"></circle><circle id="Oval" fill="#00AFFF" fill-rule="nonzero" cx="1202.9" cy="407.5" r="6.5"></circle><circle id="Oval" fill="#00AFFF" fill-rule="nonzero" cx="39.3" cy="19.7" r="19.4"></circle><circle id="Oval" fill="#00AFFF" fill-rule="nonzero" cx="427.2" cy="19.7" r="12.9"></circle><circle id="Oval" fill="#00AFFF" fill-rule="nonzero" cx="815" cy="19.7" r="6.5"></circle></g></g></g></g></g></g><g id="Group" stroke-width="1" fill="none" fill-rule="evenodd" transform="translate(2219.000000, 2123.000000)"><circle id="Oval" fill="#000000" fill-rule="nonzero" cx="1382.1" cy="44.7" r="44.5"></circle><circle id="Oval" fill="#000000" fill-rule="nonzero" cx="1382.1" cy="490.4" r="44.5"></circle><circle id="Oval" fill="#000000" fill-rule="nonzero" cx="1382.1" cy="936" r="22.3"></circle><circle id="Oval" fill="#000000" fill-rule="nonzero" cx="1382.1" cy="1381.6" r="22.3"></circle><circle id="Oval" fill="#000000" fill-rule="nonzero" cx="1382.1" cy="1827.3" r="14.8"></circle><circle id="Oval" fill="#000000" fill-rule="nonzero" cx="1382.1" cy="2272.9" r="7.4"></circle><circle id="Oval" fill="#000000" fill-rule="nonzero" cx="1827.7" cy="44.7" r="44.5"></circle><circle id="Oval" fill="#000000" fill-rule="nonzero" cx="1827.7" cy="490.4" r="22.3"></circle><circle id="Oval" fill="#000000" fill-rule="nonzero" cx="1827.7" cy="936" r="22.3"></circle><circle id="Oval" fill="#000000" fill-rule="nonzero" cx="1827.7" cy="1381.6" r="14.8"></circle><circle id="Oval" fill="#000000" fill-rule="nonzero" cx="1827.7" cy="1827.3" r="7.4"></circle><circle id="Oval" fill="#000000" fill-rule="nonzero" cx="490.8" cy="44.7" r="44.5"></circle><circle id="Oval" fill="#000000" fill-rule="nonzero" cx="490.8" cy="490.4" r="44.5"></circle><circle id="Oval" fill="#000000" fill-rule="nonzero" cx="490.8" cy="936" r="44.5"></circle><circle id="Oval" fill="#000000" fill-rule="nonzero" cx="490.8" cy="1381.6" r="44.5"></circle><circle id="Oval" fill="#000000" fill-rule="nonzero" cx="490.8" cy="1827.3" r="22.3"></circle><circle id="Oval" fill="#000000" fill-rule="nonzero" cx="490.8" cy="2272.9" r="22.3"></circle><circle id="Oval" fill="#000000" fill-rule="nonzero" cx="490.8" cy="2718.5" r="14.8"></circle><circle id="Oval" fill="#000000" fill-rule="nonzero" cx="490.8" cy="3164.2" r="7.4"></circle><circle id="Oval" fill="#000000" fill-rule="nonzero" cx="936.5" cy="44.7" r="44.5"></circle><circle id="Oval" fill="#000000" fill-rule="nonzero" cx="936.5" cy="490.4" r="44.5"></circle><circle id="Oval" fill="#000000" fill-rule="nonzero" cx="936.5" cy="936" r="44.5"></circle><circle id="Oval" fill="#000000" fill-rule="nonzero" cx="936.5" cy="1381.6" r="22.3"></circle><circle id="Oval" fill="#000000" fill-rule="nonzero" cx="936.5" cy="1827.3" r="22.3"></circle><circle id="Oval" fill="#000000" fill-rule="nonzero" cx="936.5" cy="2272.9" r="14.8"></circle><circle id="Oval" fill="#000000" fill-rule="nonzero" cx="936.5" cy="2718.5" r="7.4"></circle><circle id="Oval" fill="#000000" fill-rule="nonzero" cx="45.2" cy="44.7" r="44.5"></circle><circle id="Oval" fill="#000000" fill-rule="nonzero" cx="45.2" cy="490.4" r="44.5"></circle><circle id="Oval" fill="#000000" fill-rule="nonzero" cx="45.2" cy="936" r="44.5"></circle><circle id="Oval" fill="#000000" fill-rule="nonzero" cx="45.2" cy="1381.6" r="44.5"></circle><circle id="Oval" fill="#000000" fill-rule="nonzero" cx="45.2" cy="1827.3" r="44.5"></circle><circle id="Oval" fill="#000000" fill-rule="nonzero" cx="45.2" cy="2272.9" r="22.3"></circle><circle id="Oval" fill="#000000" fill-rule="nonzero" cx="45.2" cy="2718.5" r="22.3"></circle><circle id="Oval" fill="#000000" fill-rule="nonzero" cx="45.2" cy="3164.2" r="14.8"></circle><circle id="Oval" fill="#000000" fill-rule="nonzero" cx="2273.4" cy="44.7" r="22.3"></circle><circle id="Oval" fill="#000000" fill-rule="nonzero" cx="2273.4" cy="490.4" r="22.3"></circle><circle id="Oval" fill="#000000" fill-rule="nonzero" cx="2273.4" cy="936" r="14.8"></circle><circle id="Oval" fill="#000000" fill-rule="nonzero" cx="2273.4" cy="1381.6" r="7.4"></circle><circle id="Oval" fill="#000000" fill-rule="nonzero" cx="2719" cy="44.7" r="22.3"></circle><circle id="Oval" fill="#000000" fill-rule="nonzero" cx="2719" cy="490.4" r="14.8"></circle><circle id="Oval" fill="#000000" fill-rule="nonzero" cx="2719" cy="936" r="7.4"></circle></g></g></g></g></g></svg>