<?xml version="1.0" encoding="UTF-8"?><svg width="4000px" height="4000px" viewBox="0 0 4000 4000" version="1.1" xmlns="http://www.w3.org/2000/svg" xmlns:xlink="http://www.w3.org/1999/xlink"><defs><rect id="path-1" x="0" y="0" width="4000" height="4000"></rect></defs><g id="Page-1" stroke="none" stroke-width="1" fill="none" fill-rule="evenodd"><g id="pattern"><mask id="mask-2" fill="white"><use xlink:href="#path-1"></use></mask><g id="path-1"></g><g id="Group" mask="url(#mask-2)"><g transform="translate(-987.000000, 0.000000)"><g><rect id="Rectangle-path" fill="#FFFFFF" fill-rule="nonzero" x="987" y="0" width="4000" height="4000"></rect><path d="M4367,1827.3 C3307.5,1313.4 3015.9,971.4 3288,1007.7 C3613.4,1051.1 2246.9,239.5 2804,194.2 C3361.1,148.9 4313.3,-91.5 5209.7,1062.2 C6106.1,2215.9 5347.3,2302.8 4367,1827.3 Z" id="Shape" fill="#00AFFF" fill-rule="nonzero"></path><path d="M3298.2,3187 C2277.4,3324.8 -240.2,2686.3 1288.4,2710.2 C2817,2734.1 4245.2,2441 4082.6,2709.5 C3920,2978 3814.2,3117.4 3298.2,3187 Z" id="Shape" fill="#00AFFF" fill-rule="nonzero"></path><path d="M4011.7,1463.4 C2861.5,1066.5 2394.7,285 3080,374.1 C3765.3,463.2 3504,-232.4 4394.7,451.2 C5314.6,1157.1 6192.2,2215.9 4011.7,1463.4 Z" id="Shape" fill="#000000" fill-rule="nonzero"></path><g transform="translate(1394.000000, 434.000000)" fill="#00AFFF" fill-rule="nonzero" id="Oval"><circle cx="913.9" cy="22.5" r="22.3"></circle><circle cx="1359.6" cy="22.5" r="22.3"></circle><circle cx="22.7" cy="22.5" r="22.3"></circle><circle cx="468.3" cy="22.5" r="22.3"></circle><circle cx="2696.5" cy="22.5" r="22.3"></circle><circle cx="3142.1" cy="22.5" r="22.3"></circle><circle cx="1805.2" cy="22.5" r="22.3"></circle><circle cx="2250.8" cy="22.5" r="22.3"></circle><circle cx="913.9" cy="468.2" r="22.3"></circle><circle cx="1359.6" cy="468.2" r="22.3"></circle><circle cx="22.7" cy="468.2" r="22.3"></circle><circle cx="468.3" cy="468.2" r="22.3"></circle><circle cx="2696.5" cy="468.2" r="22.3"></circle><circle cx="3142.1" cy="468.2" r="22.3"></circle><circle cx="1805.2" cy="468.2" r="22.3"></circle><circle cx="2250.8" cy="468.2" r="22.3"></circle><circle cx="913.9" cy="913.8" r="22.3"></circle><circle cx="1359.6" cy="913.8" r="22.3"></circle><circle cx="22.7" cy="913.8" r="22.3"></circle><circle cx="468.3" cy="913.8" r="22.3"></circle><circle cx="2696.5" cy="913.8" r="22.3"></circle><circle cx="3142.1" cy="913.8" r="22.3"></circle><circle cx="1805.2" cy="913.8" r="22.3"></circle><circle cx="2250.8" cy="913.8" r="22.3"></circle><circle cx="913.9" cy="1359.4" r="22.3"></circle><circle cx="1359.6" cy="1359.4" r="22.3"></circle><circle cx="22.7" cy="1359.4" r="22.3"></circle><circle cx="468.3" cy="1359.4" r="22.3"></circle><circle cx="2696.5" cy="1359.4" r="22.3"></circle><circle cx="3142.1" cy="1359.4" r="22.3"></circle><circle cx="1805.2" cy="1359.4" r="22.3"></circle><circle cx="2250.8" cy="1359.4" r="22.3"></circle><circle cx="913.9" cy="1805.1" r="22.3"></circle><circle cx="1359.6" cy="1805.1" r="22.3"></circle><circle cx="22.7" cy="1805.1" r="22.3"></circle><circle cx="468.3" cy="1805.1" r="22.3"></circle><circle cx="2696.5" cy="1805.1" r="22.3"></circle><circle cx="3142.1" cy="1805.1" r="22.3"></circle><circle cx="1805.2" cy="1805.1" r="22.3"></circle><circle cx="2250.8" cy="1805.1" r="22.3"></circle><circle cx="913.9" cy="2250.7" r="22.3"></circle><circle cx="1359.6" cy="2250.7" r="22.3"></circle><circle cx="22.7" cy="2250.7" r="22.3"></circle><circle cx="468.3" cy="2250.7" r="22.3"></circle><circle cx="2696.5" cy="2250.7" r="22.3"></circle><circle cx="3142.1" cy="2250.7" r="22.3"></circle><circle cx="1805.2" cy="2250.7" r="22.3"></circle><circle cx="2250.8" cy="2250.7" r="22.3"></circle><circle cx="913.9" cy="2696.3" r="22.3"></circle><circle cx="1359.6" cy="2696.3" r="22.3"></circle><circle cx="22.7" cy="2696.3" r="22.3"></circle><circle cx="468.3" cy="2696.3" r="22.3"></circle><circle cx="2696.5" cy="2696.3" r="22.3"></circle><circle cx="3142.1" cy="2696.3" r="22.3"></circle><circle cx="1805.2" cy="2696.3" r="22.3"></circle><circle cx="2250.8" cy="2696.3" r="22.3"></circle><circle cx="913.9" cy="3141.9" r="22.3"></circle><circle cx="1359.6" cy="3141.9" r="22.3"></circle><circle cx="22.7" cy="3141.9" r="22.3"></circle><circle cx="468.3" cy="3141.9" r="22.3"></circle><circle cx="2696.5" cy="3141.9" r="22.3"></circle><circle cx="3142.1" cy="3141.9" r="22.3"></circle><circle cx="1805.2" cy="3141.9" r="22.3"></circle><circle cx="2250.8" cy="3141.9" r="22.3"></circle></g><path d="M1378.2,1365.2 C2035.8,1402.8 2229.7,1907.1 2740.6,2092.9 C3251.5,2278.7 4443.7,2619.3 3685,2867 C2926.3,3114.7 2384.5,3037.3 1796.2,2867 C1207.9,2696.7 -751.1,2092.9 309.9,1783.2 C851.2,1625.2 836.3,1334.3 1378.2,1365.2 Z" id="Shape" fill="#000000" fill-rule="nonzero"></path><path d="M4426,3792.4 C3819.1,3885.9 2952.9,3679 4124,3226.5 C5295.1,2774 5334.5,2990.4 5167.3,3275.7 C5000.1,3561 4776.9,3738.3 4426,3792.4 Z" id="Shape" fill="#00AFFF" fill-rule="nonzero"></path></g></g></g></g></g></svg>