<?xml version="1.0" encoding="UTF-8"?><svg width="4000px" height="4000px" viewBox="0 0 4000 4000" version="1.1" xmlns="http://www.w3.org/2000/svg" xmlns:xlink="http://www.w3.org/1999/xlink"><defs><rect id="path-1" x="0" y="0" width="4000" height="4000"></rect></defs><g id="Page-1" stroke="none" stroke-width="1" fill="none" fill-rule="evenodd"><g id="pattern"><mask id="mask-2" fill="white"><use xlink:href="#path-1"></use></mask><g id="path-1"></g><g id="Group" mask="url(#mask-2)"><g transform="translate(-1437.000000, -90.000000)"><g><rect id="Rectangle-path" fill="#FFFFFF" fill-rule="nonzero" x="1431.2" y="0.6" width="4024.4" height="4115.4"></rect><g transform="translate(1492.000000, 64.000000)" fill="#000000" fill-rule="nonzero" id="Oval"><circle cx="1132.6" cy="54.4" r="53.9"></circle><circle cx="1132.6" cy="593.7" r="53.9"></circle><circle cx="1132.6" cy="1133" r="26.9"></circle><circle cx="1132.6" cy="1672.3" r="26.9"></circle><circle cx="1132.6" cy="2211.6" r="18"></circle><circle cx="1132.6" cy="2750.9" r="9"></circle><circle cx="1671.9" cy="54.4" r="53.9"></circle><circle cx="1671.9" cy="593.7" r="26.9"></circle><circle cx="1671.9" cy="1133" r="26.9"></circle><circle cx="1671.9" cy="1672.3" r="18"></circle><circle cx="1671.9" cy="2211.6" r="9"></circle><circle cx="54" cy="54.4" r="53.9"></circle><circle cx="54" cy="593.7" r="53.9"></circle><circle cx="54" cy="1133" r="53.9"></circle><circle cx="54" cy="1672.3" r="53.9"></circle><circle cx="54" cy="2211.6" r="26.9"></circle><circle cx="54" cy="2750.9" r="26.9"></circle><circle cx="54" cy="3290.2" r="18"></circle><circle cx="54" cy="3829.5" r="9"></circle><circle cx="593.3" cy="54.4" r="53.9"></circle><circle cx="593.3" cy="593.7" r="53.9"></circle><circle cx="593.3" cy="1133" r="53.9"></circle><circle cx="593.3" cy="1672.3" r="26.9"></circle><circle cx="593.3" cy="2211.6" r="26.9"></circle><circle cx="593.3" cy="2750.9" r="18"></circle><circle cx="593.3" cy="3290.2" r="9"></circle><circle cx="2211.2" cy="54.4" r="26.9"></circle><circle cx="2211.2" cy="593.7" r="26.9"></circle><circle cx="2211.2" cy="1133" r="18"></circle><circle cx="2211.2" cy="1672.3" r="9"></circle><circle cx="2750.5" cy="54.4" r="26.9"></circle><circle cx="2750.5" cy="593.7" r="18"></circle><circle cx="2750.5" cy="1133" r="9"></circle></g><ellipse id="Oval" fill="#00AFFF" fill-rule="nonzero" transform="translate(1427.861800, 1763.638600) rotate(-34.262132) translate(-1427.861800, -1763.638600) " cx="1427.8618" cy="1763.6386" rx="1129.14022" ry="878.131282"></ellipse><path d="M2266,3254 C2154.8,3102.7 2201.8,2547.7 2266,2439.5 C2330.2,2331.3 2926.3,2188.7 2926.3,2188.7 C2926.3,2188.7 3592.6,2337.4 3627.6,2439.5 C3662.7,2541.6 3312,3417.2 3066.5,3417.8 C2821.1,3418.3 2266,3254 2266,3254 Z" id="Shape" fill="#00AFFF" fill-rule="nonzero"></path><g id="Shape" transform="translate(3150.000000, 3246.000000)" fill="#000000"><g id="path-3-link" fill-rule="nonzero"><path d="M0.6,990.5 C125.8,911.6 438.9,684.2 501.6,641.3 C564.2,598.5 814.7,631.1 877.3,599.1 C939.9,567.1 1033.8,390.1 1080.8,392.5 C1127.8,394.9 1456.5,405.7 1534.8,392.5 C1613.1,379.3 1603.2,268.4 1667.8,270.2 C1832.3,274.8 1910.5,115.1 1957.4,106.3 C2004.4,97.5 2223.5,99.5 2286.1,106.3 C2348.7,113.1 2395.7,-50.1 2442.6,15.9 C2489.6,81.8 2442.6,990.4 2442.6,990.4 L0.6,990.4 L0.6,990.5 Z" id="path-3"></path></g><g id="path-3-link"><path d="M0.6,990.5 C125.8,911.6 438.9,684.2 501.6,641.3 C564.2,598.5 814.7,631.1 877.3,599.1 C939.9,567.1 1033.8,390.1 1080.8,392.5 C1127.8,394.9 1456.5,405.7 1534.8,392.5 C1613.1,379.3 1603.2,268.4 1667.8,270.2 C1832.3,274.8 1910.5,115.1 1957.4,106.3 C2004.4,97.5 2223.5,99.5 2286.1,106.3 C2348.7,113.1 2395.7,-50.1 2442.6,15.9 C2489.6,81.8 2442.6,990.4 2442.6,990.4 L0.6,990.4 L0.6,990.5 Z" id="path-3"></path></g></g><path d="M4534.2,1609 C4534.2,1609 5141.3,1659.4 4958.8,2271.4 L5200,2329 C5200,2329 5373.5,1983.6 5156.9,1670.1 C4940.3,1356.6 4592.5,1364.6 4592.5,1364.6 L4534.2,1609 Z" id="Shape" fill="#00AFFF" fill-rule="nonzero"></path><path d="M1168.1,3124.9 C1168.1,3124.9 2248.8,3486.2 2337.1,3594.9 C2425.4,3703.6 2828.5,4236.4 2828.5,4236.4 L1168.1,4236.4 L1168.1,3124.9 Z" id="Shape" fill="#00AFFF" fill-rule="nonzero"></path><path d="M3226.8,1387.9 C2637.2,1294.8 1868.9,1107 1843.2,1003.4 C1817.4,899.8 2123.9,450.8 2180,436.9 C2327.1,400.3 3386.7,879.6 3386.7,879.6 L3804.9,1081.4 C3804.9,1081.4 4556.5,1390.8 4319.9,1426.1 C4083.3,1461.4 4042.2,1542.9 3807.7,1504.2 C3573.2,1465.4 3531.7,1436 3226.8,1387.9 Z" id="Shape" fill="#000000" fill-rule="nonzero"></path><path d="M2701.5,0.6 C2767.7,91.7 2979.6,435 3151.8,481 C3324,527 3814,700 3986.2,753.5 C4158.4,807 4516,1171.5 5178.2,1241.2 L5800.7,1295.1 L5800.7,0.6 L2701.5,0.6 Z" id="Shape" fill="#000000" fill-rule="nonzero"></path><path d="M4044.8,3459.4 C4044.8,3459.4 3809.4,2810.9 4356.1,2614.3 C4902.8,2417.7 5125.5,2897.6 5125.5,2897.6 L4044.8,3459.4 Z" id="Shape" fill="#000000" fill-rule="nonzero"></path><polygon id="Shape" fill="#00AFFF" fill-rule="nonzero" points="2772.7 474.9 2772.7 1170 3305.5 710.4"></polygon><g transform="translate(1552.000000, 2172.000000)" fill="#000000" fill-rule="nonzero" id="Oval"><circle transform="translate(76.686470, 1538.944330) rotate(-45.000000) translate(-76.686470, -1538.944330) " cx="76.68647" cy="1538.94433" r="53.8994831"></circle><circle transform="translate(457.961760, 1157.597860) rotate(-45.000000) translate(-457.961760, -1157.597860) " cx="457.96176" cy="1157.59786" r="26.899742"></circle><circle transform="translate(839.378670, 776.251490) rotate(-45.000000) translate(-839.378670, -776.251490) " cx="839.37867" cy="776.25149" r="26.899742"></circle><circle transform="translate(1220.653960, 394.905020) rotate(-45.000000) translate(-1220.653960, -394.905020) " cx="1220.65396" cy="394.90502" r="17.9998274"></circle><circle transform="translate(1602.070870, 13.558650) rotate(-45.000000) translate(-1602.070870, -13.558650) " cx="1602.07087" cy="13.55865" r="8.99991369"></circle><circle transform="translate(76.686000, 776.251860) rotate(-45.000000) translate(-76.686000, -776.251860) " cx="76.686" cy="776.25186" r="26.899742"></circle><circle transform="translate(457.961490, 394.905390) rotate(-45.000000) translate(-457.961490, -394.905390) " cx="457.96149" cy="394.90539" r="17.9998274"></circle><circle transform="translate(839.378300, 13.559020) rotate(-45.000000) translate(-839.378300, -13.559020) " cx="839.3783" cy="13.55902" r="8.99991369"></circle><circle transform="translate(1220.654600, 1920.290160) rotate(-45.000000) translate(-1220.654600, -1920.290160) " cx="1220.6546" cy="1920.29016" r="53.8994831"></circle><circle transform="translate(1602.071510, 1538.943690) rotate(-45.000000) translate(-1602.071510, -1538.943690) " cx="1602.07151" cy="1538.94369" r="53.8994831"></circle><circle transform="translate(1983.346800, 1157.597320) rotate(-45.000000) translate(-1983.346800, -1157.597320) " cx="1983.3468" cy="1157.59732" r="26.899742"></circle><circle transform="translate(2364.693000, 776.321560) rotate(-45.000000) translate(-2364.693000, -776.321560) " cx="2364.693" cy="776.32156" r="26.899742"></circle><circle transform="translate(2746.039100, 394.904480) rotate(-45.000000) translate(-2746.039100, -394.904480) " cx="2746.0391" cy="394.90448" r="17.9998274"></circle><circle transform="translate(3127.385200, 13.628720) rotate(-45.000000) translate(-3127.385200, -13.628720) " cx="3127.3852" cy="13.62872" r="8.99991369"></circle><circle transform="translate(457.962230, 1920.290530) rotate(-45.000000) translate(-457.962230, -1920.290530) " cx="457.96223" cy="1920.29053" r="53.8994831"></circle><circle transform="translate(839.378840, 1538.944060) rotate(-45.000000) translate(-839.378840, -1538.944060) " cx="839.37884" cy="1538.94406" r="53.8994831"></circle><circle transform="translate(1220.654330, 1157.597690) rotate(-45.000000) translate(-1220.654330, -1157.597690) " cx="1220.65433" cy="1157.59769" r="26.899742"></circle><circle transform="translate(1602.071140, 776.251120) rotate(-45.000000) translate(-1602.071140, -776.251120) " cx="1602.07114" cy="776.25112" r="26.899742"></circle><circle transform="translate(1983.346630, 394.904650) rotate(-45.000000) translate(-1983.346630, -394.904650) " cx="1983.34663" cy="394.90465" r="17.9998274"></circle><circle transform="translate(2364.692630, 13.628990) rotate(-45.000000) translate(-2364.692630, -13.628990) " cx="2364.69263" cy="13.62899" r="8.99991369"></circle><circle transform="translate(76.685730, 13.559290) rotate(-45.000000) translate(-76.685730, -13.559290) " cx="76.68573" cy="13.55929" r="8.99991369"></circle></g><path d="M3734.9,918 C3524.6,852.9 3190.2,550.2 3835.5,496.2 C4482.3,442.1 5128.8,427.1 5128.8,427.1 C5128.8,427.1 4309.7,627.1 4898.9,1188.3 C4898.9,1188.3 4242.7,1075.3 3734.9,918 Z" id="Shape" fill="#00AFFF" fill-rule="nonzero"></path></g></g></g></g></g></svg>